<svg width="154" height="85" viewBox="0 0 154 85" fill="none" xmlns="http://www.w3.org/2000/svg">
<path d="M59.3236 39.5017L77.5326 0L59.8511 19.8676C57.0412 14.921 52.4661 12.4833 46.6636 12.4325C36.215 12.3309 25.7664 12.4325 15.3178 12.4325H7.97339L0.162308 43.595H7.78065L0 75.0521L31.7211 35.3473H23.8593C25.4519 30.4718 26.8011 26.094 28.4039 21.8077C28.6575 21.1271 30.1285 20.5583 31.0516 20.538C36.073 20.4161 41.0944 20.4263 46.1158 20.538C50.3358 20.6091 53.2675 23.0469 53.8254 26.6324L46.0752 35.3473C43.8131 35.5505 41.9364 34.8293 39.8872 37.5921C38.5482 39.4305 37.1584 41.2893 35.5049 43.4731C39.6235 43.4731 38.254 43.3919 41.6625 43.4731C42.4569 43.5076 43.2425 43.6546 43.9957 43.9099L49.2098 50.634C49.2944 52.147 48.9008 53.6481 48.085 54.9244C47.2692 56.2007 46.0727 57.1873 44.6652 57.7441C42.9613 58.3247 41.1693 58.6031 39.3699 58.5669C33.2833 58.6583 31.9037 58.5669 25.7766 58.5669C24.7621 58.5669 23.3521 58.7091 22.7333 59.3591C20.7957 61.3906 19.1524 63.7572 17.0931 66.3676C27.633 66.3676 37.5642 66.4997 47.5259 66.3676C49.4729 66.394 51.4032 66.0055 53.1889 65.228C54.9745 64.4505 56.5747 63.3017 57.8831 61.8578L75.1284 84.0921L59.3236 39.5017Z" fill="#B57F66"/>
<path d="M88.813 16.2516H100.733L119.581 66.0223H103.938L102.295 61.5429H87.2407L85.6074 66.0223H69.9954L88.813 16.2516ZM81.0628 60.0295L82.4729 56.3018H107.063L108.483 60.0295H110.512L96.1879 22.2038H93.3272L78.9731 60.0295H81.0628ZM94.7677 24.0016L106.393 54.4735H83.183L94.7677 24.0016ZM98.1255 50.5528L94.7677 41.8277L91.4201 50.5528H98.1255Z" fill="#363636"/>
<path d="M122.746 44.5905L107.286 16.2516H124.947L130.678 26.7644L136.339 16.2516H154L138.581 44.5905V66.0223H122.746V44.5905ZM131.693 60.0295V42.2035L142.527 22.2038H140.214L130.678 39.8876L121.072 22.2038H118.83L129.634 42.2035V60.0295H131.693Z" fill="#363636"/>
</svg>
