<svg width="966" height="977" viewBox="0 0 966 977" fill="none" xmlns="http://www.w3.org/2000/svg">
<g filter="url(#filter0_d)">
<g clip-path="url(#clip0)">
<rect y="41" width="335" height="726" rx="15" fill="white"/>
<g clip-path="url(#clip1)">
<rect width="335.082" height="596" transform="translate(0 41)" fill="#645C8F"/>
<rect width="335.082" height="596" transform="translate(0 41)" fill="url(#paint0_linear)"/>
<rect y="606.619" width="335.082" height="30.3808" fill="#806565"/>
<rect y="562.835" width="335.082" height="43.7841" fill="#C4C4C4"/>
<path d="M0 222.391C0 207.586 12.0017 195.585 26.8066 195.585H308.276C323.081 195.585 335.082 207.586 335.082 222.391V637H0V222.391Z" fill="white"/>
<path d="M56.923 591.209H53.8206V601.174H56.923C60.197 601.174 62.2128 599.301 62.2128 596.213C62.2128 593.125 60.197 591.209 56.923 591.209ZM55.1216 600.102V592.267H56.923C59.525 592.267 60.8832 593.782 60.8832 596.213C60.8832 598.643 59.525 600.102 56.923 600.102H55.1216ZM71.3633 597.242C71.3633 594.769 69.6333 593.21 67.403 593.21C65.187 593.21 63.4428 594.769 63.4428 597.242C63.4428 599.73 65.1298 601.302 67.3459 601.302C69.5762 601.302 71.3633 599.73 71.3633 597.242ZM64.7724 597.242C64.7724 595.269 66.0162 594.34 67.3887 594.34C68.7326 594.34 70.0337 595.269 70.0337 597.242C70.0337 599.229 68.7041 600.159 67.3459 600.159C65.9877 600.159 64.7724 599.229 64.7724 597.242ZM78.8069 601.174H80.0936V596.556C80.0936 594.311 78.7068 593.196 76.8911 593.196C75.8332 593.196 74.8896 593.639 74.3749 594.454V593.339H73.0739V601.174H74.3749V596.842C74.3749 595.155 75.2899 594.326 76.6195 594.326C77.9348 594.326 78.8069 595.141 78.8069 596.742V601.174ZM82.4905 594.454L83.863 591.209H82.419L81.5755 594.454H82.4905ZM85.6322 599.029C85.6322 600.602 86.4185 601.174 87.8053 601.174H88.9777V600.073H88.0198C87.2191 600.073 86.9332 599.801 86.9332 599.029V594.411H88.9777V593.339H86.9332V591.366H85.6322V593.339H84.6171V594.411H85.6322V599.029ZM94.3656 601.174H95.6666V596.842C95.6666 595.155 96.5816 594.326 97.9112 594.326C99.2265 594.326 100.099 595.141 100.099 596.742V601.174H101.385V596.556C101.385 594.311 99.9985 593.196 98.2543 593.196C97.1534 593.196 96.1813 593.639 95.6666 594.469V590.594H94.3656V601.174ZM103.024 597.228C103.024 599.658 104.64 601.302 106.727 601.302C108.171 601.302 109.186 600.559 109.658 599.716V601.174H110.973V593.339H109.658V594.769C109.201 593.954 108.2 593.21 106.742 593.21C104.64 593.21 103.024 594.783 103.024 597.228ZM109.658 597.242C109.658 599.086 108.429 600.159 106.999 600.159C105.569 600.159 104.354 599.072 104.354 597.228C104.354 595.384 105.569 594.34 106.999 594.34C108.429 594.34 109.658 595.426 109.658 597.242ZM112.243 593.339L115.317 601.174H116.832L119.906 593.339H118.519L116.089 599.973L113.644 593.339H112.243ZM124.517 594.311C125.861 594.311 127.005 595.155 126.991 596.685H122.044C122.187 595.155 123.245 594.311 124.517 594.311ZM128.177 598.758H126.776C126.49 599.601 125.747 600.202 124.574 600.202C123.245 600.202 122.13 599.33 122.03 597.743H128.292C128.32 597.471 128.335 597.242 128.335 596.956C128.335 594.812 126.848 593.21 124.574 593.21C122.287 593.21 120.7 594.769 120.7 597.242C120.7 599.73 122.344 601.302 124.574 601.302C126.519 601.302 127.777 600.187 128.177 598.758ZM133.377 597.228C133.377 599.658 134.993 601.302 137.08 601.302C138.524 601.302 139.539 600.559 140.011 599.716V601.174H141.326V593.339H140.011V594.769C139.554 593.954 138.553 593.21 137.094 593.21C134.993 593.21 133.377 594.783 133.377 597.228ZM140.011 597.242C140.011 599.086 138.782 600.159 137.352 600.159C135.922 600.159 134.707 599.072 134.707 597.228C134.707 595.384 135.922 594.34 137.352 594.34C138.782 594.34 140.011 595.426 140.011 597.242ZM149.258 601.174H150.545V596.556C150.545 594.311 149.158 593.196 147.342 593.196C146.284 593.196 145.341 593.639 144.826 594.454V593.339H143.525V601.174H144.826V596.842C144.826 595.155 145.741 594.326 147.071 594.326C148.386 594.326 149.258 595.141 149.258 596.742V601.174ZM155.995 597.228C155.995 599.658 157.611 601.302 159.698 601.302C161.142 601.302 162.157 600.559 162.629 599.716V601.174H163.944V593.339H162.629V594.769C162.172 593.954 161.171 593.21 159.713 593.21C157.611 593.21 155.995 594.783 155.995 597.228ZM162.629 597.242C162.629 599.086 161.4 600.159 159.97 600.159C158.54 600.159 157.325 599.072 157.325 597.228C157.325 595.384 158.54 594.34 159.97 594.34C161.4 594.34 162.629 595.426 162.629 597.242ZM165.657 597.242C165.657 599.73 167.244 601.302 169.474 601.302C171.419 601.302 172.691 600.216 173.091 598.658H171.69C171.404 599.644 170.632 600.202 169.474 600.202C168.045 600.202 166.987 599.187 166.987 597.242C166.987 595.326 168.045 594.311 169.474 594.311C170.632 594.311 171.419 594.912 171.69 595.855H173.091C172.691 594.211 171.419 593.21 169.474 593.21C167.244 593.21 165.657 594.783 165.657 597.242ZM174.341 597.242C174.341 599.73 175.928 601.302 178.158 601.302C180.103 601.302 181.375 600.216 181.776 598.658H180.374C180.088 599.644 179.316 600.202 178.158 600.202C176.729 600.202 175.671 599.187 175.671 597.242C175.671 595.326 176.729 594.311 178.158 594.311C179.316 594.311 180.103 594.912 180.374 595.855H181.776C181.375 594.211 180.103 593.21 178.158 593.21C175.928 593.21 174.341 594.783 174.341 597.242ZM190.946 597.242C190.946 594.769 189.216 593.21 186.986 593.21C184.77 593.21 183.025 594.769 183.025 597.242C183.025 599.73 184.712 601.302 186.928 601.302C189.159 601.302 190.946 599.73 190.946 597.242ZM184.355 597.242C184.355 595.269 185.599 594.34 186.971 594.34C188.315 594.34 189.616 595.269 189.616 597.242C189.616 599.229 188.287 600.159 186.928 600.159C185.57 600.159 184.355 599.229 184.355 597.242ZM199.605 593.339H198.304V597.643C198.304 599.33 197.403 600.159 196.059 600.159C194.744 600.159 193.872 599.344 193.872 597.757V593.339H192.585V597.928C192.585 600.173 194 601.288 195.802 601.288C196.845 601.288 197.803 600.831 198.304 600.016V601.174H199.605V593.339ZM207.534 601.174H208.821V596.556C208.821 594.311 207.434 593.196 205.619 593.196C204.561 593.196 203.617 593.639 203.102 594.454V593.339H201.801V601.174H203.102V596.842C203.102 595.155 204.017 594.326 205.347 594.326C206.662 594.326 207.534 595.141 207.534 596.742V601.174ZM211.232 599.029C211.232 600.602 212.019 601.174 213.405 601.174H214.578V600.073H213.62C212.819 600.073 212.533 599.801 212.533 599.029V594.411H214.578V593.339H212.533V591.366H211.232V593.339H210.217V594.411H211.232V599.029ZM215.582 593.954H216.812C216.812 592.839 217.541 592.167 218.713 592.167C219.871 592.167 220.615 592.882 220.615 594.025C220.615 595.755 219.228 596.07 217.598 596.07H217.183L217.241 598.329H218.37L218.413 596.971C220.415 596.971 221.859 596.113 221.859 594.025C221.859 592.21 220.572 591.08 218.699 591.08C216.826 591.08 215.568 592.224 215.582 593.954ZM218.656 600.373C218.656 599.873 218.27 599.487 217.798 599.487C217.298 599.487 216.912 599.873 216.912 600.373C216.912 600.874 217.298 601.26 217.798 601.26C218.27 601.26 218.656 600.874 218.656 600.373Z" fill="black"/>
<path d="M234.14 598.357C234.14 594.726 228.879 596.127 228.879 593.882C228.879 592.925 229.608 592.467 230.551 592.496C231.581 592.524 232.167 593.139 232.224 593.811H234.025C233.882 592.11 232.538 591.109 230.637 591.109C228.607 591.109 227.22 592.195 227.22 593.94C227.22 597.6 232.496 596.041 232.496 598.443C232.496 599.287 231.852 599.901 230.709 599.901C229.579 599.901 229.007 599.244 228.936 598.429H227.191C227.191 600.187 228.721 601.274 230.709 601.274C232.925 601.274 234.14 599.844 234.14 598.357ZM236.063 601.174H237.693V593.296H236.063V601.174ZM236.892 592.253C237.464 592.253 237.921 591.795 237.921 591.209C237.921 590.623 237.464 590.165 236.892 590.165C236.306 590.165 235.848 590.623 235.848 591.209C235.848 591.795 236.306 592.253 236.892 592.253ZM239.289 597.199C239.289 599.63 240.933 601.302 243.006 601.302C244.293 601.302 245.237 600.659 245.737 599.987V601.302C245.737 602.875 244.794 603.647 243.535 603.647C242.406 603.647 241.534 603.09 241.291 602.275H239.675C239.875 604.019 241.434 605.063 243.535 605.063C245.995 605.063 247.381 603.447 247.381 601.302V593.296H245.737V594.44C245.251 593.768 244.293 593.168 243.006 593.168C240.933 593.168 239.289 594.769 239.289 597.199ZM245.737 597.228C245.737 598.929 244.579 599.887 243.35 599.887C242.134 599.887 240.962 598.901 240.962 597.199C240.962 595.498 242.134 594.583 243.35 594.583C244.579 594.583 245.737 595.541 245.737 597.228ZM255.112 601.174H256.728V596.527C256.728 594.326 255.341 593.168 253.497 593.168C252.553 593.168 251.681 593.554 251.152 594.197V593.296H249.522V601.174H251.152V596.77C251.152 595.326 251.938 594.583 253.139 594.583C254.326 594.583 255.112 595.326 255.112 596.77V601.174ZM262.506 597.542C262.506 600.073 264.279 601.274 266.366 601.274C268.439 601.274 270.269 600.073 270.269 597.542V591.238H268.639V597.571C268.639 599.115 267.767 599.844 266.381 599.844C265.008 599.844 264.136 599.115 264.136 597.571V591.238H262.506V597.542ZM274.021 594.454V593.296H272.391V604.92H274.021V600.03C274.536 600.645 275.465 601.302 276.766 601.302C278.839 601.302 280.469 599.63 280.469 597.199C280.469 594.769 278.839 593.168 276.766 593.168C275.48 593.168 274.522 593.797 274.021 594.454ZM278.811 597.199C278.811 598.901 277.638 599.887 276.409 599.887C275.194 599.887 274.021 598.929 274.021 597.228C274.021 595.541 275.194 594.583 276.409 594.583C277.638 594.583 278.811 595.498 278.811 597.199Z" fill="#645C8F"/>
<path d="M45.2221 306.889H45.1797C45.1797 304.149 42.9489 301.917 40.2098 301.917C37.4707 301.917 35.2399 304.149 35.2399 306.889H35.1976C34.5057 306.889 33.9551 307.454 33.9551 308.132V314.078C33.9551 314.77 34.5198 315.321 35.1976 315.321H45.2221C45.9139 315.321 46.4646 314.756 46.4646 314.078V308.132C46.4787 307.44 45.9139 306.889 45.2221 306.889ZM41.2546 312.962C41.2829 313.061 41.2546 313.174 41.1982 313.259C41.1276 313.343 41.0287 313.386 40.9299 313.386H39.4897C39.3768 313.386 39.2921 313.343 39.2215 313.259C39.1509 313.174 39.1368 313.061 39.165 312.962L39.6309 311.168C39.2356 310.957 38.9673 310.547 38.9673 310.067C38.9673 309.375 39.5321 308.824 40.2098 308.824C40.8875 308.824 41.4523 309.389 41.4523 310.067C41.4523 310.547 41.184 310.957 40.7887 311.168L41.2546 312.962ZM43.4854 306.889H36.9342C36.9342 305.081 38.4026 303.612 40.2098 303.612C42.0171 303.612 43.4854 305.081 43.4854 306.889Z" fill="#B0B0B0"/>
<rect x="31.2744" y="256.346" width="272.534" height="0.893553" fill="#B0B0B0"/>
<rect x="31.2744" y="321.576" width="272.534" height="0.893553" fill="#B0B0B0"/>
<path d="M40.2099 242.818L49.1455 238.028V237.582C49.1455 237.345 49.0513 237.117 48.8838 236.95C48.7162 236.782 48.4889 236.688 48.2519 236.688H32.168C31.931 236.688 31.7037 236.782 31.5361 236.95C31.3686 237.117 31.2744 237.345 31.2744 237.582V238.028L40.2099 242.818Z" fill="#B0B0B0"/>
<path d="M40.6299 244.623C40.5006 244.692 40.3564 244.728 40.2099 244.728C40.0635 244.728 39.9193 244.692 39.79 244.623L31.2744 240.039V249.198C31.2744 249.435 31.3686 249.662 31.5361 249.83C31.7037 249.997 31.931 250.091 32.168 250.091H48.2519C48.4889 250.091 48.7162 249.997 48.8838 249.83C49.0513 249.662 49.1455 249.435 49.1455 249.198V240.039L40.6299 244.623Z" fill="#B0B0B0"/>
<path d="M64.5432 237.348H59.1819V247.327H64.5432V246.255H60.4829V242.823H64.1143V241.751H60.4829V238.42H64.5432V237.348ZM72.2449 247.327H73.5316V242.709C73.5316 240.464 72.1448 239.349 70.3291 239.349C69.2711 239.349 68.3275 239.792 67.8129 240.607V239.492H66.5118V247.327H67.8129V242.995C67.8129 241.308 68.7279 240.479 70.0575 240.479C71.3728 240.479 72.2449 241.294 72.2449 242.895V247.327ZM75.9427 245.182C75.9427 246.755 76.7291 247.327 78.1159 247.327H79.2882V246.226H78.3303C77.5297 246.226 77.2438 245.954 77.2438 245.182V240.564H79.2882V239.492H77.2438V237.519H75.9427V239.492H74.9277V240.564H75.9427V245.182ZM84.1957 240.464C85.5396 240.464 86.6834 241.308 86.6691 242.838H81.7224C81.8653 241.308 82.9233 240.464 84.1957 240.464ZM87.8557 244.911H86.4546C86.1687 245.754 85.4252 246.355 84.2529 246.355C82.9233 246.355 81.8081 245.483 81.7081 243.896H87.9701C87.9987 243.624 88.013 243.395 88.013 243.109C88.013 240.965 86.5261 239.364 84.2529 239.364C81.9654 239.364 80.3784 240.922 80.3784 243.395C80.3784 245.883 82.0226 247.456 84.2529 247.456C86.1973 247.456 87.4554 246.34 87.8557 244.911ZM91.0313 243.066C91.0313 241.251 91.9749 240.693 93.2187 240.693H93.5618V239.349C92.318 239.349 91.4745 239.893 91.0313 240.765V239.492H89.7303V247.327H91.0313V243.066ZM104.237 237.348H98.8752V247.327H104.237V246.255H100.176V242.823H103.808V241.751H100.176V238.42H104.237V237.348ZM117.514 247.327H118.801V242.709C118.801 240.464 117.414 239.349 115.627 239.349C114.426 239.349 113.311 239.964 112.853 241.093C112.339 239.921 111.266 239.349 109.98 239.349C108.95 239.349 108.021 239.792 107.506 240.622V239.492H106.205V247.327H107.506V243.009C107.506 241.322 108.407 240.479 109.722 240.479C111.009 240.479 111.867 241.294 111.867 242.895V247.327H113.153V243.009C113.153 241.322 114.054 240.479 115.369 240.479C116.656 240.479 117.514 241.294 117.514 242.895V247.327ZM120.449 243.381C120.449 245.811 122.064 247.456 124.152 247.456C125.596 247.456 126.611 246.712 127.082 245.869V247.327H128.398V239.492H127.082V240.922C126.625 240.107 125.624 239.364 124.166 239.364C122.064 239.364 120.449 240.936 120.449 243.381ZM127.082 243.395C127.082 245.24 125.853 246.312 124.423 246.312C122.994 246.312 121.778 245.225 121.778 243.381C121.778 241.537 122.994 240.493 124.423 240.493C125.853 240.493 127.082 241.58 127.082 243.395ZM130.596 247.327H131.897V239.492H130.596V247.327ZM131.268 238.22C131.74 238.22 132.126 237.834 132.126 237.333C132.126 236.833 131.74 236.447 131.268 236.447C130.768 236.447 130.382 236.833 130.382 237.333C130.382 237.834 130.768 238.22 131.268 238.22ZM134.115 247.327H135.416V236.747H134.115V247.327ZM148.136 247.327H149.508L145.92 237.419H144.418L140.816 247.327H142.188L142.989 245.111H147.335L148.136 247.327ZM146.963 244.053H143.36L145.162 239.02L146.963 244.053ZM150.592 243.381C150.592 245.811 152.208 247.456 154.309 247.456C155.739 247.456 156.754 246.726 157.226 245.854V247.327H158.541V236.747H157.226V240.893C156.683 239.993 155.553 239.364 154.324 239.364C152.208 239.364 150.592 240.936 150.592 243.381ZM157.226 243.395C157.226 245.24 155.996 246.312 154.567 246.312C153.137 246.312 151.922 245.225 151.922 243.381C151.922 241.537 153.137 240.493 154.567 240.493C155.996 240.493 157.226 241.58 157.226 243.395ZM160.254 243.381C160.254 245.811 161.869 247.456 163.971 247.456C165.401 247.456 166.416 246.726 166.887 245.854V247.327H168.203V236.747H166.887V240.893C166.344 239.993 165.215 239.364 163.985 239.364C161.869 239.364 160.254 240.936 160.254 243.381ZM166.887 243.395C166.887 245.24 165.658 246.312 164.228 246.312C162.799 246.312 161.583 245.225 161.583 243.381C161.583 241.537 162.799 240.493 164.228 240.493C165.658 240.493 166.887 241.58 166.887 243.395ZM171.702 243.066C171.702 241.251 172.646 240.693 173.89 240.693H174.233V239.349C172.989 239.349 172.146 239.893 171.702 240.765V239.492H170.401V247.327H171.702V243.066ZM179.066 240.464C180.41 240.464 181.554 241.308 181.539 242.838H176.593C176.736 241.308 177.794 240.464 179.066 240.464ZM182.726 244.911H181.325C181.039 245.754 180.295 246.355 179.123 246.355C177.794 246.355 176.678 245.483 176.578 243.896H182.84C182.869 243.624 182.883 243.395 182.883 243.109C182.883 240.965 181.396 239.364 179.123 239.364C176.836 239.364 175.249 240.922 175.249 243.395C175.249 245.883 176.893 247.456 179.123 247.456C181.067 247.456 182.326 246.34 182.726 244.911ZM190.233 245.197C190.176 242.394 185.63 243.41 185.63 241.551C185.63 240.922 186.202 240.464 187.16 240.464C188.203 240.464 188.804 241.036 188.861 241.823H190.162C190.076 240.293 188.932 239.364 187.203 239.364C185.458 239.364 184.329 240.35 184.329 241.551C184.329 244.468 188.961 243.452 188.961 245.197C188.961 245.84 188.389 246.355 187.36 246.355C186.259 246.355 185.587 245.783 185.515 245.025H184.172C184.257 246.455 185.544 247.456 187.374 247.456C189.104 247.456 190.233 246.483 190.233 245.197ZM197.703 245.197C197.646 242.394 193.099 243.41 193.099 241.551C193.099 240.922 193.671 240.464 194.629 240.464C195.673 240.464 196.273 241.036 196.33 241.823H197.632C197.546 240.293 196.402 239.364 194.672 239.364C192.928 239.364 191.798 240.35 191.798 241.551C191.798 244.468 196.431 243.452 196.431 245.197C196.431 245.84 195.859 246.355 194.829 246.355C193.728 246.355 193.057 245.783 192.985 245.025H191.641C191.727 246.455 193.014 247.456 194.844 247.456C196.574 247.456 197.703 246.483 197.703 245.197Z" fill="#B0B0B0"/>
<path d="M61.8626 302.577H56.5012V312.556H61.8626V311.484H57.8023V308.053H61.4337V306.98H57.8023V303.649H61.8626V302.577ZM69.5642 312.556H70.8509V307.938C70.8509 305.694 69.4641 304.579 67.6484 304.579C66.5905 304.579 65.6469 305.022 65.1322 305.837V304.721H63.8312V312.556H65.1322V308.224C65.1322 306.537 66.0472 305.708 67.3768 305.708C68.6921 305.708 69.5642 306.523 69.5642 308.124V312.556ZM73.2621 310.412C73.2621 311.984 74.0484 312.556 75.4352 312.556H76.6075V311.455H75.6496C74.849 311.455 74.5631 311.184 74.5631 310.412V305.794H76.6075V304.721H74.5631V302.749H73.2621V304.721H72.247V305.794H73.2621V310.412ZM81.515 305.694C82.8589 305.694 84.0027 306.537 83.9884 308.067H79.0417C79.1847 306.537 80.2426 305.694 81.515 305.694ZM85.175 310.14H83.7739C83.488 310.983 82.7446 311.584 81.5722 311.584C80.2426 311.584 79.1275 310.712 79.0274 309.125H85.2894C85.318 308.853 85.3323 308.625 85.3323 308.339C85.3323 306.194 83.8454 304.593 81.5722 304.593C79.2847 304.593 77.6978 306.151 77.6978 308.625C77.6978 311.112 79.3419 312.685 81.5722 312.685C83.5166 312.685 84.7747 311.57 85.175 310.14ZM88.3506 308.296C88.3506 306.48 89.2942 305.922 90.538 305.922H90.8812V304.579C89.6373 304.579 88.7938 305.122 88.3506 305.994V304.721H87.0496V312.556H88.3506V308.296ZM97.4956 307.324V303.664H99.4113C100.898 303.664 101.527 304.35 101.527 305.508C101.527 306.623 100.898 307.324 99.4113 307.324H97.4956ZM102.857 305.508C102.857 303.878 101.756 302.591 99.4113 302.591H96.1946V312.556H97.4956V308.396H99.4113C101.885 308.396 102.857 307.023 102.857 305.508ZM103.988 308.61C103.988 311.041 105.603 312.685 107.691 312.685C109.135 312.685 110.15 311.941 110.622 311.098V312.556H111.937V304.721H110.622V306.151C110.164 305.336 109.163 304.593 107.705 304.593C105.603 304.593 103.988 306.165 103.988 308.61ZM110.622 308.625C110.622 310.469 109.392 311.541 107.962 311.541C106.533 311.541 105.317 310.455 105.317 308.61C105.317 306.766 106.533 305.722 107.962 305.722C109.392 305.722 110.622 306.809 110.622 308.625ZM119.768 310.426C119.711 307.624 115.165 308.639 115.165 306.78C115.165 306.151 115.737 305.694 116.695 305.694C117.738 305.694 118.339 306.266 118.396 307.052H119.697C119.611 305.522 118.467 304.593 116.737 304.593C114.993 304.593 113.864 305.579 113.864 306.78C113.864 309.697 118.496 308.682 118.496 310.426C118.496 311.069 117.924 311.584 116.895 311.584C115.794 311.584 115.122 311.012 115.05 310.254H113.707C113.792 311.684 115.079 312.685 116.909 312.685C118.639 312.685 119.768 311.713 119.768 310.426ZM127.238 310.426C127.181 307.624 122.634 308.639 122.634 306.78C122.634 306.151 123.206 305.694 124.164 305.694C125.208 305.694 125.808 306.266 125.865 307.052H127.166C127.081 305.522 125.937 304.593 124.207 304.593C122.463 304.593 121.333 305.579 121.333 306.78C121.333 309.697 125.966 308.682 125.966 310.426C125.966 311.069 125.394 311.584 124.364 311.584C123.263 311.584 122.591 311.012 122.52 310.254H121.176C121.262 311.684 122.549 312.685 124.379 312.685C126.108 312.685 127.238 311.713 127.238 310.426ZM130.604 312.556H131.948L133.835 306.337L135.723 312.556H137.066L139.511 304.721H138.225L136.452 311.312L134.55 304.721H133.221L131.276 311.298L129.475 304.721H128.145L130.604 312.556ZM148.237 308.625C148.237 306.151 146.507 304.593 144.277 304.593C142.061 304.593 140.316 306.151 140.316 308.625C140.316 311.112 142.003 312.685 144.219 312.685C146.45 312.685 148.237 311.112 148.237 308.625ZM141.646 308.625C141.646 306.652 142.89 305.722 144.262 305.722C145.606 305.722 146.907 306.652 146.907 308.625C146.907 310.612 145.578 311.541 144.219 311.541C142.861 311.541 141.646 310.612 141.646 308.625ZM151.248 308.296C151.248 306.48 152.192 305.922 153.436 305.922H153.779V304.579C152.535 304.579 151.692 305.122 151.248 305.994V304.721H149.947V312.556H151.248V308.296ZM154.795 308.61C154.795 311.041 156.41 312.685 158.512 312.685C159.942 312.685 160.957 311.956 161.428 311.084V312.556H162.744V301.976H161.428V306.123C160.885 305.222 159.756 304.593 158.526 304.593C156.41 304.593 154.795 306.165 154.795 308.61ZM161.428 308.625C161.428 310.469 160.199 311.541 158.769 311.541C157.34 311.541 156.124 310.455 156.124 308.61C156.124 306.766 157.34 305.722 158.769 305.722C160.199 305.722 161.428 306.809 161.428 308.625Z" fill="#B0B0B0"/>
<path d="M297.436 307.616C296.949 306.973 295.759 305.627 293.965 304.535L292.697 305.803C293.945 306.485 294.882 307.343 295.486 307.987C294.569 308.962 292.892 310.425 290.513 311.029C291.449 310.347 292.054 309.235 292.054 307.987C292.054 307.519 291.976 307.07 291.82 306.661L285.755 312.726C286.535 312.921 287.393 313.018 288.29 313.018C293.399 313.018 296.52 309.508 297.436 308.338C297.592 308.143 297.592 307.831 297.436 307.616Z" fill="#B0B0B0"/>
<path d="M295.603 300.03C295.272 299.699 294.726 299.699 294.375 300.03L291.079 303.326C290.221 303.092 289.285 302.955 288.27 302.955C283.161 302.955 280.041 306.466 279.124 307.636C278.949 307.85 278.949 308.162 279.124 308.377C279.631 309.04 280.879 310.483 282.81 311.575L280.08 314.306C279.748 314.637 279.748 315.183 280.08 315.534C280.255 315.71 280.47 315.788 280.684 315.788C280.899 315.788 281.133 315.71 281.289 315.534L295.564 301.259C295.954 300.908 295.954 300.362 295.603 300.03ZM281.113 307.987C282.03 307.012 283.707 305.549 286.086 304.945C285.15 305.627 284.546 306.739 284.546 307.987C284.546 308.533 284.663 309.059 284.877 309.547L284.136 310.288C282.751 309.586 281.737 308.669 281.113 307.987Z" fill="#B0B0B0"/>
<rect x="31.2744" y="385.911" width="272.534" height="44.6777" rx="8.93553" fill="#645C8F"/>
<path d="M149.402 403.592V413.528H154.392V412.213H151.032V403.592H149.402ZM163.261 409.582C163.261 407.109 161.488 405.522 159.243 405.522C156.999 405.522 155.226 407.109 155.226 409.582C155.226 412.055 156.927 413.657 159.172 413.657C161.431 413.657 163.261 412.055 163.261 409.582ZM156.884 409.582C156.884 407.795 157.985 406.937 159.215 406.937C160.43 406.937 161.588 407.795 161.588 409.582C161.588 411.369 160.387 412.241 159.172 412.241C157.942 412.241 156.884 411.369 156.884 409.582ZM164.329 409.553C164.329 411.984 165.973 413.657 168.046 413.657C169.333 413.657 170.276 413.013 170.777 412.341V413.657C170.777 415.229 169.833 416.001 168.575 416.001C167.445 416.001 166.573 415.444 166.33 414.629H164.715C164.915 416.373 166.473 417.417 168.575 417.417C171.034 417.417 172.421 415.801 172.421 413.657V405.65H170.777V406.794C170.29 406.122 169.333 405.522 168.046 405.522C165.973 405.522 164.329 407.123 164.329 409.553ZM170.777 409.582C170.777 411.283 169.619 412.241 168.389 412.241C167.174 412.241 166.001 411.255 166.001 409.553C166.001 407.852 167.174 406.937 168.389 406.937C169.619 406.937 170.777 407.895 170.777 409.582ZM174.561 413.528H176.191V405.65H174.561V413.528ZM175.391 404.607C175.963 404.607 176.42 404.149 176.42 403.563C176.42 402.977 175.963 402.519 175.391 402.519C174.804 402.519 174.347 402.977 174.347 403.563C174.347 404.149 174.804 404.607 175.391 404.607ZM183.921 413.528H185.537V408.881C185.537 406.68 184.15 405.522 182.306 405.522C181.362 405.522 180.49 405.908 179.961 406.551V405.65H178.331V413.528H179.961V409.124C179.961 407.68 180.747 406.937 181.948 406.937C183.135 406.937 183.921 407.68 183.921 409.124V413.528Z" fill="white"/>
<path d="M201.05 348.873H202.108V345.225H204.965V344.365H202.108V341.636H205.627V340.776H201.05V348.873ZM212.944 345.678C212.944 343.669 211.539 342.402 209.727 342.402C207.926 342.402 206.509 343.669 206.509 345.678C206.509 347.699 207.88 348.977 209.68 348.977C211.492 348.977 212.944 347.699 212.944 345.678ZM207.589 345.678C207.589 344.075 208.6 343.32 209.715 343.32C210.807 343.32 211.864 344.075 211.864 345.678C211.864 347.293 210.784 348.048 209.68 348.048C208.577 348.048 207.589 347.293 207.589 345.678ZM215.391 345.411C215.391 343.936 216.158 343.483 217.169 343.483H217.447V342.391C216.437 342.391 215.751 342.832 215.391 343.541V342.507H214.334V348.873H215.391V345.411ZM218.273 345.666C218.273 347.641 219.585 348.977 221.293 348.977C222.454 348.977 223.279 348.361 223.663 347.676V349.012C223.663 350.371 222.815 351.091 221.688 351.091C220.642 351.091 219.887 350.569 219.655 349.802H218.61C218.819 351.161 220.015 352.009 221.688 352.009C223.558 352.009 224.731 350.766 224.731 349.012V342.507H223.663V343.669C223.291 342.983 222.454 342.402 221.293 342.402C219.585 342.402 218.273 343.68 218.273 345.666ZM223.663 345.678C223.663 347.177 222.664 348.048 221.502 348.048C220.34 348.048 219.353 347.165 219.353 345.666C219.353 344.168 220.34 343.32 221.502 343.32C222.664 343.32 223.663 344.203 223.663 345.678ZM232.558 345.678C232.558 343.669 231.152 342.402 229.34 342.402C227.54 342.402 226.123 343.669 226.123 345.678C226.123 347.699 227.493 348.977 229.294 348.977C231.106 348.977 232.558 347.699 232.558 345.678ZM227.203 345.678C227.203 344.075 228.214 343.32 229.329 343.32C230.421 343.32 231.478 344.075 231.478 345.678C231.478 347.293 230.397 348.048 229.294 348.048C228.19 348.048 227.203 347.293 227.203 345.678ZM234.18 347.13C234.18 348.408 234.819 348.873 235.946 348.873H236.898V347.978H236.12C235.47 347.978 235.237 347.757 235.237 347.13V343.378H236.898V342.507H235.237V340.904H234.18V342.507H233.355V343.378H234.18V347.13ZM242.333 343.68V342.507H241.276V351.893H242.333V347.699C242.728 348.35 243.553 348.977 244.714 348.977C246.422 348.977 247.735 347.641 247.735 345.666C247.735 343.68 246.422 342.402 244.714 342.402C243.553 342.402 242.716 343.006 242.333 343.68ZM246.654 345.666C246.654 347.165 245.667 348.048 244.494 348.048C243.344 348.048 242.333 347.177 242.333 345.678C242.333 344.203 243.344 343.32 244.494 343.32C245.667 343.32 246.654 344.168 246.654 345.666ZM248.731 345.666C248.731 347.641 250.044 348.977 251.74 348.977C252.913 348.977 253.738 348.373 254.121 347.688V348.873H255.19V342.507H254.121V343.669C253.749 343.006 252.936 342.402 251.751 342.402C250.044 342.402 248.731 343.68 248.731 345.666ZM254.121 345.678C254.121 347.177 253.122 348.048 251.96 348.048C250.799 348.048 249.811 347.165 249.811 345.666C249.811 344.168 250.799 343.32 251.96 343.32C253.122 343.32 254.121 344.203 254.121 345.678ZM261.553 347.142C261.506 344.865 257.812 345.69 257.812 344.18C257.812 343.669 258.277 343.297 259.055 343.297C259.903 343.297 260.391 343.761 260.438 344.4H261.495C261.425 343.157 260.496 342.402 259.09 342.402C257.673 342.402 256.755 343.204 256.755 344.18C256.755 346.549 260.519 345.725 260.519 347.142C260.519 347.664 260.054 348.083 259.218 348.083C258.324 348.083 257.778 347.618 257.719 347.002H256.628C256.697 348.164 257.743 348.977 259.23 348.977C260.635 348.977 261.553 348.187 261.553 347.142ZM267.622 347.142C267.575 344.865 263.881 345.69 263.881 344.18C263.881 343.669 264.346 343.297 265.124 343.297C265.972 343.297 266.46 343.761 266.507 344.4H267.564C267.494 343.157 266.565 342.402 265.159 342.402C263.742 342.402 262.824 343.204 262.824 344.18C262.824 346.549 266.588 345.725 266.588 347.142C266.588 347.664 266.123 348.083 265.287 348.083C264.393 348.083 263.847 347.618 263.789 347.002H262.697C262.766 348.164 263.812 348.977 265.299 348.977C266.704 348.977 267.622 348.187 267.622 347.142ZM270.357 348.873H271.449L272.982 343.82L274.516 348.873H275.608L277.594 342.507H276.548L275.108 347.862L273.563 342.507H272.483L270.903 347.85L269.439 342.507H268.359L270.357 348.873ZM284.683 345.678C284.683 343.669 283.278 342.402 281.466 342.402C279.665 342.402 278.248 343.669 278.248 345.678C278.248 347.699 279.619 348.977 281.419 348.977C283.231 348.977 284.683 347.699 284.683 345.678ZM279.328 345.678C279.328 344.075 280.339 343.32 281.454 343.32C282.546 343.32 283.603 344.075 283.603 345.678C283.603 347.293 282.523 348.048 281.419 348.048C280.316 348.048 279.328 347.293 279.328 345.678ZM287.13 345.411C287.13 343.936 287.897 343.483 288.908 343.483H289.186V342.391C288.176 342.391 287.49 342.832 287.13 343.541V342.507H286.073V348.873H287.13V345.411ZM290.012 345.666C290.012 347.641 291.324 348.977 293.032 348.977C294.194 348.977 295.018 348.385 295.402 347.676V348.873H296.47V340.277H295.402V343.645C294.96 342.913 294.043 342.402 293.044 342.402C291.324 342.402 290.012 343.68 290.012 345.666ZM295.402 345.678C295.402 347.177 294.403 348.048 293.241 348.048C292.079 348.048 291.092 347.165 291.092 345.666C291.092 344.168 292.079 343.32 293.241 343.32C294.403 343.32 295.402 344.203 295.402 345.678ZM297.792 343.006H298.791C298.791 342.1 299.383 341.554 300.336 341.554C301.277 341.554 301.881 342.135 301.881 343.064C301.881 344.47 300.754 344.726 299.43 344.726H299.093L299.139 346.561H300.057L300.092 345.457C301.718 345.457 302.892 344.76 302.892 343.064C302.892 341.589 301.846 340.672 300.324 340.672C298.803 340.672 297.78 341.601 297.792 343.006ZM300.289 348.222C300.289 347.815 299.976 347.502 299.593 347.502C299.186 347.502 298.872 347.815 298.872 348.222C298.872 348.629 299.186 348.942 299.593 348.942C299.976 348.942 300.289 348.629 300.289 348.222Z" fill="black"/>
<path d="M32.9498 98.7265V114.252H40.7461V112.197H35.4965V98.7265H32.9498ZM54.6037 108.086C54.6037 104.222 51.8336 101.742 48.3264 101.742C44.8192 101.742 42.0492 104.222 42.0492 108.086C42.0492 111.951 44.7076 114.453 48.2148 114.453C51.7443 114.453 54.6037 111.951 54.6037 108.086ZM44.6405 108.086C44.6405 105.294 46.3606 103.954 48.2818 103.954C50.1806 103.954 51.99 105.294 51.99 108.086C51.99 110.879 50.1136 112.241 48.2148 112.241C46.2936 112.241 44.6405 110.879 44.6405 108.086ZM56.2723 108.042C56.2723 111.839 58.8412 114.453 62.0804 114.453C64.0909 114.453 65.5652 113.448 66.3471 112.398V114.453C66.3471 116.91 64.8727 118.117 62.9069 118.117C61.1421 118.117 59.7795 117.245 59.3997 115.972H56.8754C57.1882 118.697 59.6231 120.328 62.9069 120.328C66.7492 120.328 68.916 117.804 68.916 114.453V101.943H66.3471V103.73C65.5876 102.68 64.0909 101.742 62.0804 101.742C58.8412 101.742 56.2723 104.244 56.2723 108.042ZM66.3471 108.086C66.3471 110.745 64.5376 112.241 62.6165 112.241C60.7177 112.241 58.8859 110.7 58.8859 108.042C58.8859 105.383 60.7177 103.954 62.6165 103.954C64.5376 103.954 66.3471 105.45 66.3471 108.086ZM78.0638 114.252H80.6104V98.7265H78.0638V114.252ZM92.6884 114.252H95.2127V106.992C95.2127 103.552 93.0458 101.742 90.1641 101.742C88.6897 101.742 87.3271 102.345 86.5005 103.351V101.943H83.9539V114.252H86.5005V107.372C86.5005 105.115 87.7292 103.954 89.6056 103.954C91.4598 103.954 92.6884 105.115 92.6884 107.372V114.252Z" fill="white"/>
<path opacity="0.35" d="M300.681 58.8711C300.681 57.8019 301.547 56.9351 302.617 56.9351H317.509C318.578 56.9351 319.445 57.8019 319.445 58.8711V64.2324C319.445 65.3016 318.578 66.1684 317.509 66.1684H302.617C301.547 66.1684 300.681 65.3016 300.681 64.2324V58.8711Z" stroke="#14171A" stroke-width="0.893553"/>
<path opacity="0.4" d="M320.786 59.7646V63.3389C321.505 63.0361 321.972 62.3319 321.972 61.5518C321.972 60.7716 321.505 60.0674 320.786 59.7646Z" fill="#35001C"/>
<path d="M302.021 59.4668C302.021 58.8088 302.554 58.2754 303.212 58.2754H316.914C317.572 58.2754 318.105 58.8088 318.105 59.4668V63.6367C318.105 64.2947 317.572 64.8281 316.914 64.8281H303.212C302.554 64.8281 302.021 64.2947 302.021 63.6367V59.4668Z" fill="#35001C"/>
<path fill-rule="evenodd" clip-rule="evenodd" d="M288.913 58.5208C290.893 58.5208 292.797 59.2816 294.232 60.6459C294.34 60.7512 294.513 60.7499 294.619 60.6429L295.652 59.6005C295.706 59.5462 295.736 59.4727 295.736 59.3962C295.735 59.3198 295.704 59.2466 295.65 59.193C291.884 55.5835 285.942 55.5835 282.175 59.193C282.121 59.2466 282.09 59.3197 282.089 59.3962C282.089 59.4726 282.119 59.5462 282.172 59.6005L283.206 60.6429C283.312 60.7501 283.485 60.7514 283.593 60.6459C285.028 59.2816 286.933 58.5207 288.913 58.5208ZM288.913 61.9125C290.001 61.9124 291.05 62.3168 291.856 63.047C291.965 63.1506 292.137 63.1484 292.243 63.0419L293.275 61.9994C293.33 61.9448 293.36 61.8706 293.359 61.7935C293.358 61.7164 293.327 61.6429 293.271 61.5893C290.815 59.305 287.013 59.305 284.557 61.5893C284.501 61.6429 284.47 61.7165 284.469 61.7936C284.468 61.8707 284.499 61.9448 284.553 61.9994L285.584 63.0419C285.691 63.1484 285.863 63.1506 285.972 63.047C286.778 62.3173 287.826 61.9129 288.913 61.9125ZM290.98 64.1944C290.981 64.2717 290.951 64.3463 290.896 64.4004L289.111 66.2015C289.059 66.2544 288.987 66.2842 288.913 66.2842C288.838 66.2842 288.767 66.2544 288.715 66.2015L286.93 64.4004C286.875 64.3462 286.844 64.2717 286.846 64.1944C286.848 64.1171 286.881 64.0439 286.938 63.9921C288.078 63.028 289.748 63.028 290.887 63.9921C290.945 64.0439 290.978 64.1171 290.98 64.1944Z" fill="#35001C"/>
<path fill-rule="evenodd" clip-rule="evenodd" d="M276.704 56.7861H275.81C275.316 56.7861 274.916 57.1862 274.916 57.6797V65.4238C274.916 65.9173 275.316 66.3174 275.81 66.3174H276.704C277.197 66.3174 277.597 65.9173 277.597 65.4238V57.6797C277.597 57.1862 277.197 56.7861 276.704 56.7861ZM271.64 58.8712H272.534C273.027 58.8712 273.427 59.2712 273.427 59.7647V65.4239C273.427 65.9174 273.027 66.3175 272.534 66.3175H271.64C271.147 66.3175 270.747 65.9174 270.747 65.4239V59.7647C270.747 59.2712 271.147 58.8712 271.64 58.8712ZM268.364 60.9561H267.47C266.977 60.9561 266.577 61.3562 266.577 61.8497V65.4239C266.577 65.9174 266.977 66.3174 267.47 66.3174H268.364C268.857 66.3174 269.257 65.9174 269.257 65.4239V61.8497C269.257 61.3562 268.857 60.9561 268.364 60.9561ZM264.194 62.7432H263.3C262.807 62.7432 262.407 63.1433 262.407 63.6367V65.4239C262.407 65.9173 262.807 66.3174 263.3 66.3174H264.194C264.687 66.3174 265.087 65.9173 265.087 65.4239V63.6367C265.087 63.1433 264.687 62.7432 264.194 62.7432Z" fill="#35001C"/>
<path d="M32.1482 60.8559C32.2688 62.2499 33.207 63.4964 35.2309 63.4964C37.7909 63.4964 38.4879 61.7405 38.4879 58.4433C38.4879 55.2399 37.6435 53.5109 35.1237 53.5109C33.073 53.5109 31.8801 54.7976 31.8801 56.7411C31.8801 58.8052 33.274 59.8641 34.9897 59.8641C35.8743 59.8641 36.7187 59.529 37.161 58.9124C37.161 61.4054 36.5444 62.223 35.3247 62.223C34.3061 62.223 33.7297 61.7271 33.5555 60.8559H32.1482ZM35.2577 58.5774C33.904 58.5774 33.341 57.7061 33.341 56.7009C33.341 55.575 34.0246 54.7842 35.1639 54.7842C36.2764 54.7842 36.9867 55.4946 36.9867 56.7411C36.9867 57.8402 36.3434 58.5774 35.2577 58.5774ZM41.6748 62.6251C41.6748 62.0756 41.2459 61.6467 40.7097 61.6467C40.1602 61.6467 39.7313 62.0756 39.7313 62.6251C39.7313 63.1747 40.1602 63.6036 40.7097 63.6036C41.2459 63.6036 41.6748 63.1747 41.6748 62.6251ZM41.6748 56.9958C41.6748 56.4462 41.2459 56.0173 40.7097 56.0173C40.1602 56.0173 39.7313 56.4462 39.7313 56.9958C39.7313 57.5453 40.1602 57.9742 40.7097 57.9742C41.2459 57.9742 41.6748 57.5453 41.6748 56.9958ZM47.5738 63.5098H49.075V61.4725H50.3215V60.1455H49.075V53.8594H47.2253L42.7218 60.3198V61.4725H47.5738V63.5098ZM44.4776 60.1455L47.6408 55.4142V60.1455H44.4776ZM52.3649 63.5098H53.9063V53.7388H51.1184V55.1327H52.3649V63.5098Z" fill="#35001C"/>
</g>
</g>
</g>
<g filter="url(#filter1_d)">
<g clip-path="url(#clip2)">
<rect x="437.944" width="335" height="726" rx="15" transform="rotate(12 437.944 0)" fill="white"/>
<g clip-path="url(#clip3)">
<rect width="334.52" height="595" transform="translate(437.944) rotate(12)" fill="#645C8F"/>
<rect width="334.52" height="595" transform="translate(437.944) rotate(12)" fill="url(#paint1_linear)"/>
<rect x="320.542" y="552.331" width="334.52" height="30.3298" transform="rotate(12 320.542 552.331)" fill="#806565"/>
<rect x="329.63" y="509.575" width="334.52" height="43.7106" transform="rotate(12 329.63 509.575)" fill="#C4C4C4"/>
<path d="M400.294 177.13C403.367 162.673 417.578 153.444 432.035 156.517L706.891 214.939C721.348 218.012 730.577 232.223 727.504 246.68L641.447 651.548L314.237 581.998L400.294 177.13Z" fill="white"/>
<path d="M378.347 558.065L379.687 558.35L378.24 547.93L376.774 547.619L371.199 556.546L372.539 556.831L373.781 554.833L378.025 555.735L378.347 558.065ZM377.882 554.625L374.364 553.877L377.167 549.337L377.882 554.625ZM381.221 558.676L382.491 558.946L384.687 548.615L383.416 548.345L381.221 558.676ZM386.811 555.516C387.188 553.743 388.225 553.394 389.44 553.652L389.775 553.724L390.054 552.411C388.839 552.153 387.903 552.509 387.289 553.268L387.553 552.026L386.282 551.756L384.656 559.406L385.927 559.676L386.811 555.516ZM394.542 554.503C395.854 554.782 396.796 555.843 396.464 557.334L391.634 556.308C392.091 554.843 393.299 554.239 394.542 554.503ZM397.193 559.605L395.825 559.314C395.37 560.078 394.52 560.511 393.375 560.267C392.077 559.991 391.169 558.908 391.4 557.338L397.515 558.637C397.599 558.378 397.661 558.158 397.72 557.878C398.165 555.784 397.046 553.912 394.826 553.44C392.592 552.965 390.719 554.158 390.206 556.573C389.689 559.002 390.968 560.879 393.146 561.342C395.045 561.746 396.505 560.918 397.193 559.605ZM398.866 558.399C398.362 560.773 399.598 562.714 401.636 563.147C403.046 563.446 404.192 562.931 404.828 562.205L404.525 563.629L405.809 563.902L407.436 556.252L406.151 555.979L405.854 557.375C405.577 556.484 404.754 555.55 403.33 555.248C401.278 554.812 399.374 556.012 398.866 558.399ZM405.341 559.79C404.958 561.591 403.535 562.383 402.139 562.086C400.743 561.79 399.782 560.476 400.165 558.675C400.547 556.874 401.951 556.107 403.347 556.404C404.743 556.701 405.718 558.017 405.341 559.79ZM408.301 560.405C407.796 562.778 409.033 564.719 411.085 565.155C412.481 565.452 413.623 564.951 414.265 564.197L413.96 565.635L415.244 565.908L417.44 555.577L416.156 555.304L415.295 559.352C414.951 558.36 413.979 557.511 412.778 557.256C410.712 556.817 408.808 558.017 408.301 560.405ZM414.776 561.796C414.393 563.597 412.97 564.388 411.574 564.092C410.177 563.795 409.216 562.482 409.599 560.681C409.982 558.88 411.385 558.113 412.781 558.41C414.177 558.706 415.152 560.023 414.776 561.796ZM420.603 565.529L419.52 558.82L418.11 558.521L419.587 566.743L417.295 570.109L418.608 570.387L425.607 560.114L424.294 559.835L420.603 565.529ZM428.98 568.827L430.25 569.097L431.149 564.867C431.499 563.22 432.565 562.6 433.863 562.876C435.148 563.149 435.83 564.126 435.498 565.689L434.578 570.017L435.834 570.284L436.793 565.775C437.259 563.583 436.136 562.206 434.433 561.844C433.358 561.616 432.317 561.847 431.642 562.55L432.446 558.766L431.176 558.496L428.98 568.827ZM438.254 566.771C437.75 569.145 438.986 571.086 441.024 571.519C442.434 571.819 443.58 571.303 444.216 570.578L443.913 572.002L445.197 572.275L446.824 564.624L445.539 564.351L445.242 565.747C444.965 564.856 444.142 563.923 442.718 563.62C440.666 563.184 438.762 564.384 438.254 566.771ZM444.729 568.162C444.346 569.963 442.923 570.755 441.527 570.458C440.131 570.162 439.17 568.848 439.552 567.047C439.935 565.246 441.339 564.48 442.735 564.776C444.131 565.073 445.106 566.389 444.729 568.162ZM448.063 564.887L449.438 573.176L450.918 573.491L455.546 566.478L454.192 566.19L450.442 572.164L449.431 565.178L448.063 564.887ZM459.847 568.385C461.16 568.663 462.101 569.725 461.77 571.215L456.939 570.189C457.397 568.725 458.605 568.12 459.847 568.385ZM462.498 573.486L461.13 573.195C460.676 573.96 459.825 574.392 458.681 574.148C457.382 573.872 456.474 572.789 456.706 571.219L462.821 572.519C462.905 572.259 462.967 572.039 463.026 571.76C463.471 569.665 462.351 567.793 460.132 567.321C457.898 566.847 456.025 568.039 455.511 570.454C454.995 572.883 456.274 574.76 458.452 575.223C460.351 575.627 461.811 574.799 462.498 573.486ZM467.894 573.072C467.389 575.445 468.626 577.386 470.664 577.819C472.074 578.119 473.22 577.603 473.855 576.878L473.553 578.302L474.837 578.575L476.463 570.924L475.179 570.651L474.882 572.047C474.605 571.156 473.782 570.223 472.358 569.92C470.305 569.484 468.401 570.684 467.894 573.072ZM474.369 574.462C473.986 576.263 472.563 577.055 471.167 576.759C469.771 576.462 468.809 575.149 469.192 573.348C469.575 571.547 470.978 570.78 472.374 571.076C473.771 571.373 474.746 572.689 474.369 574.462ZM482.582 580.221L483.839 580.488L484.797 575.979C485.263 573.787 484.141 572.41 482.367 572.033C481.334 571.814 480.321 572.051 479.649 572.739L479.881 571.651L478.61 571.38L476.984 579.031L478.255 579.301L479.154 575.071C479.504 573.424 480.569 572.804 481.868 573.08C483.152 573.353 483.835 574.33 483.502 575.893L482.582 580.221ZM489.981 577.766C489.476 580.14 490.712 582.08 492.751 582.514C494.161 582.813 495.306 582.298 495.942 581.572L495.639 582.996L496.924 583.269L498.55 575.619L497.266 575.346L496.969 576.742C496.691 575.851 495.868 574.917 494.444 574.615C492.392 574.179 490.488 575.379 489.981 577.766ZM496.455 579.157C496.073 580.958 494.649 581.75 493.253 581.453C491.857 581.156 490.896 579.843 491.279 578.042C491.662 576.241 493.065 575.474 494.461 575.771C495.857 576.068 496.832 577.384 496.455 579.157ZM499.412 579.786C498.896 582.215 500.119 584.08 502.297 584.543C504.196 584.946 505.664 584.149 506.378 582.711L505.01 582.42C504.526 583.324 503.656 583.708 502.525 583.468C501.129 583.171 500.307 581.96 500.711 580.062C501.108 578.191 502.352 577.419 503.748 577.716C504.879 577.956 505.522 578.706 505.592 579.684L506.96 579.974C506.91 578.286 505.875 577.045 503.977 576.641C501.799 576.178 499.923 577.384 499.412 579.786ZM507.892 581.588C507.376 584.017 508.599 585.882 510.777 586.345C512.676 586.749 514.144 585.952 514.858 584.513L513.49 584.223C513.006 585.126 512.136 585.511 511.006 585.27C509.61 584.974 508.787 583.763 509.191 581.864C509.588 579.993 510.832 579.222 512.228 579.518C513.359 579.759 514.002 580.508 514.072 581.486L515.44 581.777C515.39 580.088 514.355 578.847 512.457 578.443C510.279 577.981 508.403 579.187 507.892 581.588ZM524.107 585.035C524.62 582.619 523.254 580.739 521.077 580.276C518.913 579.816 516.886 580.975 516.373 583.391C515.856 585.82 517.177 587.706 519.341 588.166C521.519 588.629 523.591 587.464 524.107 585.035ZM517.671 583.667C518.08 581.74 519.488 581.091 520.828 581.376C522.14 581.655 523.218 582.832 522.809 584.759C522.396 586.699 520.905 587.331 519.578 587.049C518.252 586.767 517.258 585.607 517.671 583.667ZM533.372 583.021L532.102 582.751L531.209 586.953C530.859 588.6 529.807 589.223 528.495 588.944C527.21 588.671 526.528 587.694 526.857 586.145L527.774 581.831L526.518 581.564L525.565 586.045C525.099 588.237 526.25 589.62 528.009 589.993C529.028 590.21 530.058 589.962 530.716 589.27L530.476 590.401L531.746 590.671L533.372 583.021ZM539.49 592.317L540.746 592.584L541.705 588.075C542.171 585.883 541.048 584.506 539.275 584.129C538.242 583.91 537.228 584.147 536.557 584.835L536.788 583.747L535.518 583.476L533.891 591.127L535.162 591.397L536.061 587.167C536.411 585.52 537.477 584.9 538.775 585.176C540.06 585.449 540.742 586.426 540.41 587.989L539.49 592.317ZM543.546 590.99C543.219 592.526 543.869 593.248 545.223 593.536L546.368 593.779L546.596 592.704L545.661 592.505C544.879 592.339 544.656 592.014 544.816 591.261L545.775 586.751L547.771 587.175L547.994 586.128L545.997 585.704L546.407 583.777L545.136 583.507L544.727 585.434L543.736 585.223L543.513 586.27L544.504 586.481L543.546 590.99ZM548.847 586.937L550.048 587.192C550.279 586.103 551.131 585.599 552.275 585.842C553.406 586.082 553.984 586.935 553.746 588.052C553.387 589.741 551.968 589.76 550.376 589.422L549.971 589.336L549.558 591.553L550.661 591.788L550.985 590.471C552.94 590.886 554.528 590.348 554.961 588.31C555.338 586.537 554.316 585.167 552.487 584.778C550.658 584.389 549.192 585.245 548.847 586.937ZM550.516 593.844C550.62 593.355 550.323 592.898 549.863 592.8C549.374 592.696 548.917 592.993 548.813 593.482C548.709 593.97 549.006 594.427 549.495 594.531C549.955 594.629 550.412 594.332 550.516 593.844Z" fill="black"/>
<path d="M560.985 586.745L558.922 596.448L563.795 597.483L564.068 596.199L560.787 595.501L562.576 587.083L560.985 586.745ZM573.274 595.471C573.788 593.056 572.386 591.138 570.194 590.672C568.002 590.206 565.941 591.388 565.428 593.803C564.915 596.218 566.244 598.135 568.436 598.601C570.641 599.07 572.761 597.886 573.274 595.471ZM567.048 594.147C567.419 592.402 568.672 591.793 569.872 592.048C571.059 592.301 572.012 593.379 571.641 595.124C571.27 596.869 569.916 597.471 568.729 597.219C567.529 596.964 566.677 595.892 567.048 594.147ZM574.323 595.665C573.818 598.038 575.077 600.013 577.101 600.443C578.358 600.71 579.413 600.278 580.041 599.725L579.768 601.01C579.441 602.545 578.36 603.103 577.131 602.842C576.028 602.608 575.292 601.882 575.224 601.036L573.646 600.701C573.48 602.446 574.785 603.788 576.837 604.224C579.239 604.735 580.928 603.445 581.373 601.351L583.035 593.533L581.429 593.192L581.192 594.308C580.857 593.551 580.046 592.766 578.79 592.499C576.765 592.069 574.827 593.291 574.323 595.665ZM580.613 597.031C580.26 598.692 578.931 599.387 577.73 599.132C576.543 598.88 575.603 597.673 575.956 596.012C576.309 594.35 577.644 593.7 578.831 593.953C580.032 594.208 580.964 595.383 580.613 597.031ZM587.117 602.441L588.708 602.779L590.771 593.076L589.179 592.738L587.117 602.441ZM596.257 604.383L597.834 604.719L598.799 600.181C599.256 598.031 598.142 596.613 596.341 596.23C595.42 596.034 594.488 596.23 593.838 596.748L594.025 595.869L592.433 595.53L590.798 603.223L592.39 603.561L593.304 599.261C593.603 597.851 594.525 597.288 595.698 597.538C596.857 597.784 597.47 598.673 597.171 600.083L596.257 604.383Z" fill="#645C8F"/>
<path d="M426.915 269.029L426.873 269.02C427.442 266.344 425.727 263.702 423.052 263.134C420.377 262.565 417.736 264.281 417.167 266.957L417.126 266.948C416.45 266.804 415.795 267.242 415.654 267.904L414.42 273.71C414.277 274.386 414.714 275.041 415.376 275.182L425.165 277.262C425.84 277.406 426.495 276.969 426.636 276.307L427.87 270.5C428.027 269.827 427.59 269.172 426.915 269.029ZM421.78 274.136C421.787 274.238 421.736 274.343 421.663 274.414C421.577 274.482 421.471 274.503 421.375 274.482L419.969 274.183C419.858 274.16 419.784 274.101 419.733 274.003C419.682 273.906 419.691 273.793 419.739 273.702L420.567 272.047C420.225 271.758 420.048 271.303 420.147 270.834C420.291 270.158 420.957 269.737 421.619 269.878C422.28 270.019 422.715 270.687 422.574 271.349C422.474 271.818 422.127 272.163 421.697 272.287L421.78 274.136ZM425.219 268.668L418.822 267.309C419.197 265.543 420.936 264.414 422.7 264.789C424.465 265.164 425.594 266.903 425.219 268.668Z" fill="#B0B0B0"/>
<path d="M413.376 332.726L413.334 332.717C413.903 330.041 412.188 327.399 409.513 326.831C406.838 326.262 404.197 327.978 403.628 330.654L403.587 330.645C402.911 330.501 402.256 330.939 402.115 331.601L400.881 337.407C400.738 338.083 401.175 338.738 401.837 338.879L411.626 340.959C412.301 341.103 412.956 340.666 413.097 340.004L414.331 334.197C414.488 333.524 414.051 332.869 413.376 332.726ZM408.241 337.833C408.248 337.935 408.197 338.04 408.124 338.111C408.038 338.179 407.932 338.2 407.836 338.179L406.43 337.88C406.319 337.857 406.245 337.798 406.194 337.7C406.143 337.603 406.152 337.49 406.2 337.399L407.028 335.744C406.686 335.455 406.509 335 406.608 334.531C406.752 333.855 407.418 333.434 408.08 333.575C408.741 333.716 409.176 334.384 409.035 335.046C408.935 335.515 408.588 335.86 408.158 335.984L408.241 337.833ZM411.68 332.365L405.283 331.006C405.658 329.24 407.397 328.111 409.161 328.486C410.926 328.861 412.055 330.6 411.68 332.365Z" fill="#B0B0B0"/>
<rect x="423.786" y="216.779" width="272.076" height="0.892054" transform="rotate(12 423.786 216.779)" fill="#B0B0B0"/>
<rect x="410.246" y="280.475" width="272.076" height="0.892054" transform="rotate(12 410.246 280.475)" fill="#B0B0B0"/>
<rect x="396.707" y="344.172" width="272.076" height="0.892054" transform="rotate(12 396.707 344.172)" fill="#B0B0B0"/>
<rect x="384.095" y="403.506" width="272.076" height="0.892054" transform="rotate(12 384.095 403.506)" fill="#B0B0B0"/>
<path d="M435.319 205.422L445.039 202.6L445.132 202.164C445.181 201.933 445.136 201.691 445.007 201.493C444.878 201.294 444.676 201.155 444.445 201.106L428.739 197.767C428.507 197.718 428.266 197.763 428.067 197.892C427.869 198.021 427.73 198.223 427.68 198.455L427.588 198.891L435.319 205.422Z" fill="#B0B0B0"/>
<path d="M435.355 207.272C435.214 207.312 435.066 207.318 434.923 207.287C434.78 207.257 434.646 207.192 434.534 207.098L427.17 200.854L425.269 209.798C425.22 210.029 425.265 210.271 425.394 210.469C425.523 210.667 425.725 210.807 425.956 210.856L441.663 214.194C441.894 214.243 442.135 214.199 442.334 214.07C442.532 213.941 442.671 213.739 442.721 213.507L444.622 204.563L435.355 207.272Z" fill="#B0B0B0"/>
<path d="M460.419 204.18L455.183 203.067L453.112 212.812L458.347 213.924L458.57 212.877L454.605 212.035L455.317 208.684L458.863 209.438L459.086 208.391L455.54 207.637L456.231 204.384L460.196 205.227L460.419 204.18ZM465.868 215.523L467.124 215.79L468.083 211.281C468.549 209.089 467.426 207.712 465.653 207.335C464.62 207.116 463.606 207.352 462.935 208.041L463.166 206.952L461.896 206.682L460.27 214.333L461.54 214.603L462.439 210.373C462.789 208.725 463.855 208.106 465.153 208.382C466.438 208.655 467.12 209.631 466.788 211.195L465.868 215.523ZM469.924 214.196C469.598 215.732 470.247 216.454 471.601 216.742L472.746 216.985L472.974 215.91L472.039 215.711C471.257 215.545 471.034 215.22 471.194 214.466L472.153 209.957L474.149 210.381L474.372 209.334L472.376 208.91L472.785 206.983L471.515 206.713L471.105 208.64L470.114 208.429L469.891 209.476L470.883 209.687L469.924 214.196ZM478.962 211.302C480.275 211.581 481.216 212.642 480.885 214.133L476.055 213.106C476.512 211.642 477.72 211.038 478.962 211.302ZM481.613 216.404L480.245 216.113C479.791 216.877 478.94 217.309 477.796 217.066C476.497 216.79 475.589 215.707 475.821 214.137L481.936 215.436C482.02 215.177 482.082 214.957 482.141 214.677C482.586 212.583 481.467 210.711 479.247 210.239C477.013 209.764 475.14 210.957 474.626 213.372C474.11 215.801 475.389 217.678 477.567 218.141C479.466 218.545 480.926 217.717 481.613 216.404ZM485.097 215.262C485.474 213.489 486.511 213.14 487.726 213.398L488.061 213.47L488.34 212.157C487.125 211.899 486.189 212.255 485.575 213.014L485.839 211.772L484.569 211.502L482.942 219.152L484.213 219.422L485.097 215.262ZM499.179 212.419L493.944 211.306L491.873 221.05L497.108 222.163L497.331 221.116L493.366 220.273L494.078 216.923L497.624 217.677L497.846 216.629L494.3 215.876L494.992 212.623L498.957 213.466L499.179 212.419ZM510.073 224.919L511.33 225.186L512.288 220.677C512.754 218.485 511.632 217.108 509.886 216.737C508.714 216.488 507.497 216.857 506.816 217.865C506.557 216.613 505.628 215.832 504.372 215.565C503.367 215.351 502.367 215.591 501.693 216.294L501.927 215.191L500.657 214.921L499.03 222.572L500.301 222.842L501.197 218.626C501.547 216.978 502.602 216.342 503.886 216.615C505.143 216.882 505.811 217.855 505.479 219.419L504.559 223.747L505.815 224.014L506.712 219.798C507.062 218.15 508.116 217.514 509.401 217.787C510.657 218.054 511.326 219.028 510.993 220.591L510.073 224.919ZM513.758 221.675C513.254 224.048 514.49 225.989 516.528 226.423C517.939 226.722 519.084 226.207 519.72 225.481L519.417 226.905L520.702 227.178L522.328 219.528L521.043 219.255L520.747 220.651C520.469 219.76 519.646 218.826 518.222 218.524C516.17 218.087 514.266 219.288 513.758 221.675ZM520.233 223.066C519.85 224.867 518.427 225.659 517.031 225.362C515.635 225.065 514.674 223.752 515.057 221.951C515.439 220.15 516.843 219.383 518.239 219.68C519.635 219.977 520.61 221.293 520.233 223.066ZM522.849 227.635L524.119 227.905L525.745 220.254L524.475 219.984L522.849 227.635ZM525.395 218.881C525.856 218.979 526.313 218.682 526.417 218.193C526.52 217.705 526.224 217.248 525.763 217.15C525.274 217.046 524.817 217.343 524.713 217.831C524.61 218.32 524.906 218.777 525.395 218.881ZM526.284 228.365L527.555 228.635L529.751 218.304L528.48 218.034L526.284 228.365ZM539.976 231.275L541.316 231.56L539.868 221.14L538.402 220.829L532.828 229.756L534.168 230.041L535.41 228.043L539.654 228.945L539.976 231.275ZM539.51 227.835L535.992 227.087L538.796 222.547L539.51 227.835ZM543.194 227.932C542.689 230.305 543.925 232.246 545.978 232.682C547.374 232.979 548.516 232.478 549.158 231.724L548.852 233.162L550.137 233.435L552.333 223.104L551.048 222.831L550.188 226.879C549.844 225.887 548.872 225.038 547.671 224.783C545.605 224.344 543.701 225.544 543.194 227.932ZM549.669 229.323C549.286 231.124 547.862 231.915 546.466 231.619C545.07 231.322 544.109 230.009 544.492 228.208C544.875 226.407 546.278 225.64 547.674 225.937C549.07 226.233 550.045 227.55 549.669 229.323ZM552.628 229.937C552.124 232.31 553.36 234.251 555.412 234.688C556.808 234.984 557.951 234.483 558.593 233.729L558.287 235.167L559.571 235.44L561.767 225.109L560.483 224.836L559.622 228.885C559.279 227.893 558.306 227.044 557.106 226.789C555.04 226.349 553.136 227.55 552.628 229.937ZM559.103 231.328C558.72 233.129 557.297 233.921 555.901 233.624C554.505 233.327 553.544 232.014 553.927 230.213C554.309 228.412 555.713 227.645 557.109 227.942C558.505 228.239 559.48 229.555 559.103 231.328ZM563.873 232.006C564.25 230.233 565.287 229.885 566.502 230.143L566.837 230.214L567.116 228.902C565.901 228.644 564.965 228.999 564.351 229.759L564.615 228.516L563.345 228.246L561.718 235.897L562.989 236.167L563.873 232.006ZM571.604 230.994C572.916 231.273 573.858 232.334 573.526 233.825L568.696 232.798C569.153 231.334 570.361 230.73 571.604 230.994ZM574.255 236.095L572.887 235.805C572.432 236.569 571.582 237.001 570.437 236.758C569.139 236.482 568.231 235.399 568.462 233.828L574.577 235.128C574.662 234.869 574.723 234.648 574.782 234.369C575.227 232.275 574.108 230.403 571.888 229.931C569.654 229.456 567.781 230.648 567.268 233.063C566.751 235.493 568.031 237.37 570.208 237.833C572.107 238.236 573.567 237.408 574.255 236.095ZM581.527 237.933C582.052 235.185 577.402 235.232 577.788 233.417C577.919 232.803 578.572 232.475 579.507 232.674C580.526 232.89 580.994 233.573 580.887 234.353L582.157 234.623C582.391 233.112 581.467 231.967 579.778 231.608C578.074 231.246 576.767 231.975 576.517 233.147C575.912 235.995 580.646 235.965 580.284 237.669C580.151 238.297 579.485 238.681 578.48 238.467C577.405 238.239 576.868 237.541 576.955 236.786L575.643 236.507C575.43 237.921 576.479 239.165 578.266 239.545C579.955 239.904 581.26 239.189 581.527 237.933ZM588.821 239.483C589.346 236.735 584.696 236.783 585.082 234.968C585.213 234.353 585.866 234.025 586.801 234.224C587.82 234.441 588.288 235.124 588.181 235.904L589.451 236.174C589.685 234.662 588.761 233.517 587.072 233.158C585.368 232.796 584.061 233.525 583.812 234.698C583.206 237.546 587.94 237.516 587.578 239.219C587.445 239.847 586.779 240.231 585.774 240.018C584.699 239.789 584.162 239.091 584.249 238.336L582.937 238.057C582.724 239.471 583.773 240.716 585.56 241.096C587.249 241.455 588.554 240.74 588.821 239.483Z" fill="#B0B0B0"/>
<path d="M444.262 267.32L439.026 266.207L436.955 275.952L442.19 277.065L442.413 276.018L438.448 275.175L439.16 271.824L442.706 272.578L442.929 271.531L439.383 270.777L440.074 267.524L444.039 268.367L444.262 267.32ZM449.711 278.663L450.967 278.93L451.926 274.421C452.392 272.229 451.269 270.852 449.496 270.476C448.463 270.256 447.449 270.493 446.778 271.182L447.009 270.093L445.739 269.823L444.113 277.473L445.383 277.743L446.282 273.513C446.632 271.866 447.698 271.246 448.996 271.522C450.281 271.795 450.963 272.772 450.631 274.335L449.711 278.663ZM453.767 277.337C453.441 278.872 454.09 279.594 455.444 279.882L456.589 280.125L456.817 279.05L455.882 278.851C455.1 278.685 454.877 278.361 455.037 277.607L455.996 273.097L457.992 273.522L458.215 272.475L456.219 272.05L456.628 270.124L455.358 269.854L454.948 271.78L453.957 271.57L453.734 272.617L454.726 272.827L453.767 277.337ZM462.805 274.443C464.118 274.722 465.06 275.783 464.728 277.274L459.898 276.247C460.355 274.783 461.563 274.179 462.805 274.443ZM465.457 279.544L464.088 279.253C463.634 280.018 462.783 280.45 461.639 280.206C460.34 279.93 459.432 278.847 459.664 277.277L465.779 278.577C465.863 278.317 465.925 278.097 465.984 277.818C466.429 275.724 465.31 273.851 463.09 273.38C460.856 272.905 458.983 274.097 458.469 276.512C457.953 278.942 459.232 280.819 461.41 281.281C463.309 281.685 464.769 280.857 465.457 279.544ZM468.94 278.402C469.317 276.629 470.354 276.281 471.569 276.539L471.904 276.61L472.183 275.298C470.968 275.04 470.032 275.395 469.418 276.155L469.682 274.912L468.412 274.642L466.786 282.293L468.056 282.563L468.94 278.402ZM478.072 279.351L478.832 275.777L480.703 276.175C482.155 276.483 482.626 277.284 482.386 278.415C482.155 279.504 481.395 280.057 479.943 279.749L478.072 279.351ZM483.684 278.691C484.023 277.099 483.215 275.614 480.925 275.128L477.784 274.46L475.716 284.191L476.986 284.461L477.85 280.398L479.72 280.796C482.136 281.309 483.37 280.171 483.684 278.691ZM484.145 281.955C483.64 284.329 484.877 286.269 486.915 286.703C488.325 287.002 489.471 286.487 490.106 285.761L489.804 287.185L491.088 287.458L492.714 279.808L491.43 279.535L491.133 280.931C490.855 280.04 490.033 279.106 488.609 278.804C486.556 278.367 484.652 279.568 484.145 281.955ZM490.62 283.346C490.237 285.147 488.814 285.939 487.418 285.642C486.022 285.345 485.06 284.032 485.443 282.231C485.826 280.43 487.229 279.663 488.625 279.96C490.021 280.257 490.997 281.573 490.62 283.346ZM499.178 287.004C499.704 284.255 495.053 284.303 495.439 282.488C495.57 281.874 496.223 281.546 497.158 281.745C498.178 281.961 498.645 282.644 498.538 283.424L499.808 283.694C500.042 282.182 499.118 281.038 497.429 280.679C495.726 280.316 494.418 281.045 494.169 282.218C493.563 285.066 498.297 285.036 497.935 286.74C497.802 287.368 497.136 287.752 496.131 287.538C495.056 287.31 494.519 286.612 494.606 285.857L493.294 285.578C493.081 286.992 494.13 288.236 495.917 288.616C497.606 288.975 498.911 288.26 499.178 287.004ZM506.472 288.554C506.998 285.806 502.347 285.853 502.733 284.039C502.864 283.424 503.517 283.096 504.452 283.295C505.472 283.512 505.939 284.195 505.832 284.974L507.102 285.244C507.336 283.733 506.412 282.588 504.723 282.229C503.02 281.867 501.712 282.596 501.463 283.768C500.857 286.617 505.591 286.587 505.229 288.29C505.096 288.918 504.431 289.302 503.425 289.088C502.35 288.86 501.813 288.162 501.9 287.407L500.588 287.128C500.375 288.542 501.424 289.787 503.211 290.166C504.9 290.526 506.205 289.811 506.472 288.554ZM509.317 291.333L510.629 291.612L513.763 285.931L514.315 292.395L515.627 292.674L519.641 285.531L518.384 285.264L515.285 291.332L514.796 284.501L513.498 284.225L510.234 290.244L509.84 283.448L508.542 283.172L509.317 291.333ZM527.351 291.154C527.865 288.738 526.499 286.858 524.321 286.395C522.157 285.935 520.13 287.094 519.617 289.51C519.101 291.939 520.421 293.825 522.585 294.285C524.763 294.748 526.835 293.583 527.351 291.154ZM520.915 289.786C521.325 287.859 522.732 287.21 524.072 287.495C525.385 287.774 526.462 288.951 526.053 290.878C525.64 292.818 524.149 293.45 522.823 293.168C521.497 292.886 520.503 291.726 520.915 289.786ZM530.36 291.458C530.737 289.685 531.774 289.336 532.989 289.594L533.324 289.665L533.603 288.353C532.388 288.095 531.452 288.45 530.838 289.21L531.102 287.967L529.832 287.697L528.206 295.348L529.476 295.618L530.36 291.458ZM533.758 292.501C533.254 294.874 534.49 296.815 536.542 297.251C537.938 297.548 539.081 297.047 539.723 296.293L539.417 297.731L540.701 298.004L542.897 287.673L541.613 287.4L540.752 291.449C540.409 290.456 539.436 289.608 538.236 289.352C536.169 288.913 534.265 290.113 533.758 292.501ZM540.233 293.892C539.85 295.693 538.427 296.485 537.031 296.188C535.635 295.891 534.674 294.578 535.056 292.777C535.439 290.976 536.843 290.209 538.239 290.506C539.635 290.802 540.61 292.119 540.233 293.892Z" fill="#B0B0B0"/>
<path d="M430.083 333.887C429.852 334.976 429.057 335.624 427.619 335.319L425.749 334.921L426.532 331.235L428.403 331.633C429.855 331.942 430.318 332.784 430.083 333.887ZM425.484 329.918L423.416 339.649L424.686 339.919L425.532 335.94L427.068 336.267L428.539 340.738L430.061 341.062L428.485 336.466C430.195 336.45 431.131 335.409 431.396 334.166C431.734 332.574 430.915 331.073 428.625 330.586L425.484 329.918ZM436.587 335.445C437.899 335.724 438.841 336.785 438.51 338.275L433.679 337.249C434.136 335.785 435.344 335.18 436.587 335.445ZM439.238 340.546L437.87 340.255C437.416 341.02 436.565 341.452 435.42 341.208C434.122 340.932 433.214 339.849 433.446 338.279L439.56 339.579C439.645 339.319 439.706 339.099 439.766 338.82C440.211 336.726 439.091 334.853 436.871 334.381C434.638 333.907 432.764 335.099 432.251 337.514C431.735 339.943 433.014 341.82 435.192 342.283C437.09 342.687 438.55 341.859 439.238 340.546ZM441.291 341.26C440.965 342.796 441.614 343.517 442.968 343.805L444.113 344.048L444.342 342.973L443.406 342.775C442.624 342.608 442.402 342.284 442.562 341.53L443.52 337.02L445.517 337.445L445.739 336.398L443.743 335.973L444.152 334.047L442.882 333.777L442.472 335.703L441.481 335.493L441.259 336.54L442.25 336.75L441.291 341.26ZM448.865 343.541L447.781 336.832L446.371 336.532L447.848 344.755L445.557 348.12L446.869 348.399L453.868 338.126L452.556 337.847L448.865 343.541ZM456.116 340.077L456.416 338.667L455.145 338.397L452.748 349.678L454.018 349.948L455.089 344.908C455.398 345.79 456.229 346.755 457.625 347.052C459.677 347.488 461.596 346.218 462.1 343.844C462.608 341.457 461.357 339.586 459.304 339.15C457.908 338.853 456.749 339.365 456.116 340.077ZM460.802 343.568C460.419 345.369 459.007 346.178 457.597 345.878C456.215 345.585 455.223 344.279 455.606 342.478C455.983 340.705 457.423 339.903 458.805 340.196C460.215 340.496 461.185 341.767 460.802 343.568ZM467.631 342.043C468.943 342.322 469.885 343.383 469.554 344.874L464.723 343.847C465.18 342.383 466.388 341.779 467.631 342.043ZM470.282 347.145L468.914 346.854C468.46 347.618 467.609 348.05 466.464 347.807C465.166 347.531 464.258 346.448 464.49 344.877L470.604 346.177C470.689 345.918 470.75 345.698 470.81 345.418C471.255 343.324 470.135 341.452 467.915 340.98C465.682 340.505 463.808 341.698 463.295 344.113C462.779 346.542 464.058 348.419 466.236 348.882C468.134 349.286 469.594 348.458 470.282 347.145ZM477.69 345.845L478.449 342.271L480.32 342.668C481.772 342.977 482.244 343.778 482.004 344.908C481.772 345.997 481.012 346.551 479.56 346.242L477.69 345.845ZM483.302 345.184C483.64 343.593 482.832 342.108 480.543 341.621L477.401 340.954L475.333 350.684L476.604 350.954L477.467 346.892L479.338 347.289C481.753 347.803 482.987 346.664 483.302 345.184ZM483.762 348.449C483.258 350.822 484.494 352.763 486.532 353.196C487.943 353.496 489.088 352.981 489.724 352.255L489.421 353.679L490.706 353.952L492.332 346.301L491.047 346.028L490.751 347.424C490.473 346.534 489.65 345.6 488.226 345.297C486.174 344.861 484.27 346.061 483.762 348.449ZM490.237 349.84C489.854 351.641 488.431 352.432 487.035 352.136C485.639 351.839 484.678 350.526 485.061 348.725C485.443 346.924 486.847 346.157 488.243 346.454C489.639 346.75 490.614 348.067 490.237 349.84ZM498.795 353.497C499.321 350.749 494.671 350.797 495.057 348.982C495.187 348.367 495.841 348.039 496.776 348.238C497.795 348.455 498.263 349.138 498.155 349.918L499.426 350.188C499.66 348.676 498.736 347.531 497.046 347.172C495.343 346.81 494.035 347.539 493.786 348.712C493.181 351.56 497.915 351.53 497.553 353.233C497.419 353.861 496.754 354.245 495.749 354.032C494.674 353.803 494.136 353.105 494.224 352.35L492.911 352.071C492.698 353.485 493.747 354.73 495.534 355.11C497.224 355.469 498.528 354.754 498.795 353.497ZM506.089 355.048C506.615 352.299 501.965 352.347 502.351 350.532C502.481 349.918 503.135 349.59 504.07 349.789C505.089 350.005 505.557 350.688 505.449 351.468L506.72 351.738C506.954 350.226 506.03 349.082 504.34 348.722C502.637 348.36 501.329 349.089 501.08 350.262C500.475 353.11 505.209 353.08 504.847 354.784C504.713 355.412 504.048 355.796 503.043 355.582C501.968 355.354 501.43 354.656 501.518 353.901L500.206 353.622C499.993 355.036 501.041 356.28 502.828 356.66C504.518 357.019 505.822 356.304 506.089 355.048ZM515.516 355.213C516.03 352.798 514.664 350.917 512.486 350.454C510.322 349.994 508.295 351.154 507.782 353.569C507.266 355.998 508.587 357.884 510.751 358.344C512.929 358.807 515 357.642 515.516 355.213ZM509.08 353.845C509.49 351.918 510.897 351.269 512.238 351.554C513.55 351.833 514.628 353.01 514.218 354.937C513.806 356.877 512.314 357.509 510.988 357.227C509.662 356.945 508.668 355.785 509.08 353.845ZM517.865 359.725L519.177 360.004L522.311 354.322L522.863 360.787L524.175 361.066L528.188 353.923L526.932 353.656L523.833 359.724L523.344 352.893L522.046 352.617L518.782 358.636L518.388 351.84L517.089 351.564L517.865 359.725ZM535.899 359.545C536.412 357.13 535.046 355.249 532.869 354.786C530.705 354.326 528.678 355.486 528.164 357.901C527.648 360.331 528.969 362.216 531.133 362.676C533.311 363.139 535.383 361.975 535.899 359.545ZM529.463 358.177C529.872 356.251 531.28 355.601 532.62 355.886C533.932 356.165 535.01 357.343 534.6 359.269C534.188 361.21 532.697 361.841 531.37 361.559C530.044 361.278 529.05 360.118 529.463 358.177ZM538.908 359.849C539.285 358.076 540.322 357.728 541.537 357.986L541.872 358.057L542.151 356.745C540.936 356.487 540 356.842 539.386 357.602L539.65 356.359L538.379 356.089L536.753 363.74L538.024 364.01L538.908 359.849ZM542.306 360.893C541.801 363.266 543.038 365.207 545.09 365.643C546.486 365.94 547.628 365.438 548.27 364.685L547.965 366.123L549.249 366.396L551.445 356.065L550.16 355.792L549.3 359.84C548.956 358.848 547.984 357.999 546.783 357.744C544.717 357.305 542.813 358.505 542.306 360.893ZM548.781 362.283C548.398 364.084 546.975 364.876 545.578 364.579C544.182 364.283 543.221 362.969 543.604 361.168C543.987 359.368 545.39 358.601 546.786 358.897C548.182 359.194 549.157 360.51 548.781 362.283Z" fill="#B0B0B0"/>
<path d="M408.562 389.416L411.229 389.983L409.38 398.68L410.65 398.951L412.499 390.253L415.152 390.817L415.371 389.784L408.782 388.383L408.562 389.416ZM419.544 393.837C420.856 394.116 421.798 395.177 421.467 396.668L416.636 395.641C417.093 394.177 418.302 393.573 419.544 393.837ZM422.195 398.938L420.827 398.648C420.373 399.412 419.522 399.844 418.377 399.601C417.079 399.325 416.171 398.242 416.403 396.671L422.518 397.971C422.602 397.712 422.663 397.491 422.723 397.212C423.168 395.118 422.048 393.246 419.828 392.774C417.595 392.299 415.722 393.491 415.208 395.907C414.692 398.336 415.971 400.213 418.149 400.676C420.048 401.079 421.508 400.251 422.195 398.938ZM423.524 401.687L424.795 401.957L426.991 391.626L425.72 391.356L423.524 401.687ZM431.637 396.407C432.95 396.686 433.891 397.747 433.56 399.238L428.729 398.212C429.187 396.747 430.395 396.143 431.637 396.407ZM434.288 401.509L432.92 401.218C432.466 401.982 431.615 402.415 430.471 402.171C429.172 401.895 428.264 400.812 428.496 399.242L434.611 400.541C434.695 400.282 434.757 400.062 434.816 399.782C435.261 397.688 434.141 395.816 431.922 395.344C429.688 394.869 427.815 396.062 427.301 398.477C426.785 400.906 428.064 402.783 430.242 403.246C432.141 403.65 433.601 402.822 434.288 401.509ZM438.214 398.287L438.514 396.877L437.244 396.607L434.846 407.887L436.116 408.157L437.188 403.117C437.496 404 438.327 404.965 439.723 405.261C441.775 405.698 443.694 404.427 444.199 402.054C444.706 399.667 443.455 397.796 441.403 397.36C440.007 397.063 438.847 397.575 438.214 398.287ZM442.9 401.778C442.518 403.579 441.105 404.388 439.695 404.088C438.313 403.794 437.321 402.489 437.704 400.688C438.081 398.915 439.521 398.112 440.903 398.406C442.313 398.706 443.283 399.977 442.9 401.778ZM445.052 406.263L446.322 406.533L447.222 402.303C447.572 400.655 448.637 400.035 449.936 400.311C451.22 400.584 451.903 401.561 451.57 403.125L450.65 407.453L451.907 407.72L452.865 403.21C453.331 401.019 452.208 399.642 450.505 399.28C449.43 399.051 448.389 399.282 447.714 399.985L448.518 396.202L447.248 395.932L445.052 406.263ZM462.058 405.865C462.571 403.45 461.205 401.569 459.028 401.106C456.864 400.646 454.837 401.806 454.323 404.221C453.807 406.65 455.128 408.536 457.292 408.996C459.47 409.459 461.542 408.294 462.058 405.865ZM455.622 404.497C456.031 402.57 457.439 401.921 458.779 402.206C460.091 402.485 461.169 403.662 460.759 405.589C460.347 407.529 458.856 408.161 457.529 407.879C456.203 407.597 455.209 406.437 455.622 404.497ZM468.511 411.249L469.767 411.516L470.726 407.007C471.191 404.815 470.069 403.438 468.296 403.061C467.263 402.842 466.249 403.079 465.577 403.767L465.809 402.679L464.538 402.408L462.912 410.059L464.183 410.329L465.082 406.099C465.432 404.452 466.498 403.832 467.796 404.108C469.08 404.381 469.763 405.358 469.43 406.921L468.511 411.249ZM476.52 405.947C477.832 406.226 478.774 407.287 478.442 408.778L473.612 407.752C474.069 406.287 475.277 405.683 476.52 405.947ZM479.171 411.049L477.803 410.758C477.348 411.522 476.498 411.955 475.353 411.711C474.054 411.435 473.147 410.352 473.378 408.782L479.493 410.081C479.577 409.822 479.639 409.602 479.698 409.323C480.143 407.228 479.024 405.356 476.804 404.884C474.57 404.409 472.697 405.602 472.184 408.017C471.667 410.446 472.946 412.323 475.124 412.786C477.023 413.19 478.483 412.362 479.171 411.049ZM492.673 406.2L491.029 413.934L487.564 405.114L486.293 404.844L484.222 414.589L485.492 414.859L487.139 407.11L490.602 415.945L491.872 416.215L493.944 406.47L492.673 406.2ZM502.449 410.467L501.179 410.197L500.286 414.399C499.935 416.046 498.884 416.669 497.571 416.39C496.287 416.117 495.605 415.14 495.934 413.591L496.851 409.277L495.594 409.01L494.642 413.491C494.176 415.683 495.327 417.066 497.086 417.44C498.105 417.656 499.135 417.408 499.793 416.716L499.553 417.847L500.823 418.117L502.449 410.467ZM514.011 420.921L515.268 421.188L516.226 416.678C516.692 414.486 515.569 413.11 513.824 412.739C512.652 412.489 511.435 412.858 510.754 413.866C510.495 412.615 509.566 411.834 508.31 411.566C507.305 411.353 506.305 411.593 505.63 412.296L505.865 411.193L504.594 410.923L502.968 418.573L504.239 418.843L505.135 414.627C505.485 412.98 506.54 412.343 507.824 412.616C509.081 412.883 509.749 413.857 509.417 415.42L508.497 419.748L509.753 420.015L510.649 415.799C511 414.152 512.054 413.515 513.339 413.788C514.595 414.055 515.264 415.029 514.931 416.593L514.011 420.921ZM519.946 415.674L520.818 411.57L519.548 411.299L517.352 421.631L518.622 421.901L518.922 420.491C519.219 421.429 520.061 422.338 521.458 422.635C523.51 423.071 525.429 421.801 525.933 419.427C526.441 417.04 525.203 415.172 523.137 414.733C521.783 414.445 520.615 414.926 519.946 415.674ZM524.635 419.151C524.252 420.952 522.84 421.761 521.43 421.461C520.048 421.168 519.055 419.862 519.438 418.061C519.815 416.288 521.255 415.485 522.637 415.779C524.048 416.079 525.018 417.35 524.635 419.151ZM531.464 417.626C532.776 417.905 533.718 418.966 533.386 420.457L528.556 419.43C529.013 417.966 530.221 417.362 531.464 417.626ZM534.115 422.728L532.747 422.437C532.292 423.201 531.442 423.633 530.297 423.39C528.999 423.114 528.091 422.031 528.322 420.46L534.437 421.76C534.521 421.501 534.583 421.28 534.642 421.001C535.087 418.907 533.968 417.035 531.748 416.563C529.514 416.088 527.641 417.281 527.128 419.696C526.611 422.125 527.89 424.002 530.068 424.465C531.967 424.868 533.427 424.041 534.115 422.728ZM537.599 421.586C537.975 419.813 539.013 419.464 540.227 419.722L540.562 419.794L540.841 418.481C539.627 418.223 538.69 418.579 538.076 419.338L538.34 418.096L537.07 417.826L535.444 425.476L536.714 425.746L537.599 421.586Z" fill="#B0B0B0"/>
<path d="M673.053 322.089C672.71 321.36 671.828 319.799 670.302 318.36L668.801 319.335C669.878 320.26 670.614 321.292 671.071 322.046C669.974 322.808 668.032 323.888 665.584 323.985C666.639 323.513 667.46 322.553 667.72 321.334C667.817 320.877 667.834 320.423 667.766 319.99L660.585 324.654C661.306 325.006 662.124 325.28 663 325.466C667.989 326.527 671.765 323.746 672.903 322.794C673.096 322.636 673.16 322.331 673.053 322.089Z" fill="#B0B0B0"/>
<path d="M672.837 314.301C672.582 313.908 672.049 313.795 671.637 314.046L667.735 316.58C666.945 316.174 666.06 315.846 665.069 315.635C660.08 314.575 656.304 317.355 655.166 318.308C654.951 318.481 654.886 318.785 655.013 319.031C655.37 319.784 656.289 321.452 657.948 322.919L654.715 325.019C654.323 325.274 654.209 325.807 654.46 326.219C654.595 326.426 654.788 326.547 654.998 326.592C655.207 326.636 655.452 326.609 655.641 326.47L672.544 315.493C672.998 315.231 673.111 314.698 672.837 314.301ZM657.036 319.063C658.134 318.301 660.075 317.221 662.524 317.125C661.468 317.597 660.647 318.557 660.388 319.776C660.274 320.309 660.279 320.847 660.388 321.368L659.51 321.938C658.304 320.965 657.504 319.859 657.036 319.063Z" fill="#B0B0B0"/>
<path d="M659.513 385.786C659.171 385.057 658.289 383.496 656.763 382.057L655.262 383.032C656.339 383.957 657.075 384.989 657.532 385.743C656.435 386.505 654.493 387.585 652.045 387.682C653.1 387.21 653.921 386.25 654.18 385.031C654.278 384.574 654.295 384.12 654.227 383.687L647.046 388.351C647.767 388.703 648.585 388.977 649.461 389.163C654.45 390.224 658.226 387.443 659.364 386.491C659.557 386.333 659.621 386.028 659.513 385.786Z" fill="#B0B0B0"/>
<path d="M659.298 377.998C659.043 377.605 658.51 377.492 658.098 377.743L654.196 380.277C653.406 379.871 652.521 379.543 651.53 379.333C646.541 378.272 642.765 381.052 641.627 382.005C641.411 382.178 641.347 382.482 641.474 382.728C641.831 383.481 642.75 385.149 644.409 386.616L641.176 388.716C640.784 388.971 640.67 389.504 640.921 389.916C641.056 390.123 641.249 390.244 641.459 390.289C641.668 390.333 641.913 390.306 642.102 390.167L659.005 379.19C659.459 378.928 659.572 378.395 659.298 377.998ZM643.497 382.76C644.594 381.998 646.536 380.918 648.985 380.822C647.929 381.294 647.108 382.254 646.849 383.473C646.735 384.006 646.74 384.544 646.849 385.065L645.971 385.635C644.765 384.662 643.965 383.556 643.497 382.76Z" fill="#B0B0B0"/>
<rect x="370.927" y="465.458" width="272.076" height="44.6027" rx="8.92054" transform="rotate(12 370.927 465.458)" fill="#645C8F"/>
<path d="M480.029 512.965C480.783 509.419 475.354 509.695 475.82 507.503C476.019 506.568 476.826 506.272 477.741 506.496C478.741 506.738 479.185 507.46 479.102 508.128L480.861 508.502C481.074 506.811 479.97 505.554 478.113 505.16C476.131 504.738 474.551 505.511 474.189 507.215C473.429 510.789 478.904 510.362 478.406 512.707C478.231 513.531 477.475 513.998 476.358 513.761C475.255 513.526 474.833 512.765 474.932 511.955L473.229 511.593C472.864 513.31 474.132 514.688 476.073 515.101C478.237 515.561 479.72 514.417 480.029 512.965ZM481.322 516.114L482.914 516.453L484.549 508.76L482.957 508.422L481.322 516.114ZM483.984 507.575C484.542 507.694 485.084 507.342 485.206 506.769C485.327 506.197 484.975 505.655 484.417 505.537C483.845 505.415 483.303 505.767 483.181 506.339C483.06 506.912 483.411 507.453 483.984 507.575ZM485.298 512.903C484.793 515.276 486.052 517.251 488.076 517.681C489.333 517.948 490.388 517.516 491.016 516.964L490.743 518.248C490.416 519.784 489.335 520.342 488.106 520.081C487.003 519.846 486.267 519.121 486.199 518.275L484.621 517.939C484.455 519.684 485.76 521.027 487.812 521.463C490.213 521.973 491.903 520.683 492.348 518.589L494.01 510.771L492.404 510.43L492.167 511.547C491.832 510.79 491.021 510.005 489.765 509.738C487.74 509.307 485.802 510.53 485.298 512.903ZM491.588 514.269C491.235 515.931 489.906 516.626 488.705 516.37C487.518 516.118 486.578 514.912 486.931 513.25C487.284 511.589 488.619 510.939 489.806 511.191C491.006 511.446 491.939 512.622 491.588 514.269ZM499.924 520.068L501.502 520.404L502.466 515.866C502.923 513.716 501.809 512.298 500.008 511.915C499.087 511.719 498.155 511.915 497.505 512.433L497.692 511.554L496.1 511.216L494.465 518.908L496.057 519.246L496.971 514.946C497.271 513.536 498.193 512.974 499.365 513.223C500.524 513.469 501.138 514.358 500.838 515.768L499.924 520.068ZM507.898 518.057C507.373 520.528 508.855 522.069 510.893 522.502C512.917 522.932 514.954 522.139 515.479 519.668L516.788 513.512L515.196 513.173L513.881 519.358C513.561 520.866 512.558 521.397 511.204 521.109C509.863 520.824 509.163 519.931 509.484 518.423L510.798 512.238L509.207 511.9L507.898 518.057ZM519.784 517.432L520.024 516.301L518.432 515.962L516.02 527.313L517.611 527.651L518.626 522.876C519.001 523.583 519.772 524.419 521.043 524.689C523.067 525.119 525.006 523.824 525.51 521.45C526.015 519.077 524.756 517.175 522.731 516.745C521.475 516.478 520.409 516.893 519.784 517.432ZM523.891 521.106C523.538 522.767 522.188 523.487 520.987 523.232C519.801 522.98 518.855 521.801 519.208 520.14C519.558 518.493 520.902 517.8 522.088 518.053C523.289 518.308 524.244 519.445 523.891 521.106Z" fill="white"/>
<path d="M455.904 69.6436C454.935 74.2028 457.726 78.1248 462.002 79.0336C465.165 79.706 468.225 78.7149 470.012 75.994L467.023 75.3588C465.873 76.8014 464.271 77.2589 462.461 76.874C459.45 76.2342 457.728 73.6109 458.456 70.1861C459.184 66.7613 461.82 65.0872 464.83 65.7271C466.641 66.1119 467.918 67.1814 468.382 68.9672L471.371 69.6025C470.845 66.39 468.457 64.218 465.294 63.5457C461.018 62.6369 456.868 65.1063 455.904 69.6436ZM475.818 75.2216C476.36 72.6694 477.657 72.147 479.489 72.5365L480.122 72.671L480.669 70.0969C478.967 69.7353 477.61 70.2219 476.657 71.2733L477.028 69.5282L474.541 68.9996L471.986 81.0191L474.473 81.5477L475.818 75.2216ZM487.57 73.7527C489.425 74.1468 490.636 75.6354 490.285 77.4989L483.632 76.0847C484.297 74.2425 485.891 73.3956 487.57 73.7527ZM491.807 81.4931L489.124 80.9228C488.467 81.7634 487.458 82.3243 485.931 81.9997C484.099 81.6102 482.936 80.1091 483.184 78.0869L492.367 80.039C492.521 79.6384 492.626 79.2504 492.714 78.8359C493.465 75.3021 491.549 72.4097 488.125 71.6817C484.569 70.9259 481.611 72.828 480.809 76.6018C480.007 80.3756 482.04 83.3613 485.486 84.0939C488.431 84.7198 490.686 83.4435 491.807 81.4931ZM494.282 79.4199C493.493 83.1283 495.459 86.2137 498.579 86.8768C500.586 87.3033 502.23 86.6495 503.211 85.7866L502.831 87.5753L505.339 88.1085L507.894 76.089L505.386 75.5558L505.015 77.3009C504.482 76.1616 503.289 74.9051 501.261 74.4739C498.098 73.8015 495.07 75.7115 494.282 79.4199ZM504.11 81.5547C503.559 84.1505 501.481 85.2365 499.605 84.8377C497.751 84.4436 496.282 82.5582 496.834 79.9624C497.386 77.3665 499.471 76.3506 501.325 76.7447C503.201 77.1435 504.658 78.9806 504.11 81.5547ZM509.708 85.5487C509.188 87.9919 510.329 89.1691 512.467 89.6235L514.43 90.0408L514.87 87.9685L513.343 87.6439C512.296 87.4214 512.026 86.9763 512.216 86.082L513.631 79.4287L516.554 80.05L516.985 78.0213L514.062 77.4L514.697 74.4115L512.188 73.8782L511.553 76.8668L510.135 76.5654L509.704 78.5941L511.122 78.8955L509.708 85.5487ZM523.934 81.482C525.788 81.8761 527 83.3648 526.649 85.2282L519.996 83.814C520.661 81.9718 522.255 81.125 523.934 81.482ZM528.171 89.2225L525.488 88.6522C524.831 89.4928 523.822 90.0537 522.295 89.7291C520.463 89.3396 519.3 87.8384 519.547 85.8163L528.731 87.7683C528.885 87.3678 528.99 86.9798 529.078 86.5653C529.829 83.0314 527.913 80.139 524.488 79.4111C520.933 78.6553 517.975 80.5573 517.173 84.3311C516.371 88.105 518.404 91.0906 521.85 91.8232C524.795 92.4492 527.05 91.1729 528.171 89.2225ZM536.312 88.3537C535.524 92.0621 537.49 95.1475 540.609 95.8106C542.616 96.2372 544.26 95.5834 545.241 94.7204L544.861 96.5091L547.37 97.0424L549.924 85.0228L547.416 84.4896L547.045 86.2347C546.512 85.0955 545.32 83.8389 543.291 83.4077C540.128 82.7354 537.1 84.6453 536.312 88.3537ZM546.141 90.4885C545.589 93.0843 543.511 94.1703 541.635 93.7716C539.781 93.3774 538.312 91.4921 538.864 88.8962C539.416 86.3003 541.501 85.2844 543.356 85.6786C545.232 86.0773 546.688 87.9144 546.141 90.4885ZM559.165 99.5496L561.63 100.074L563.137 92.984C563.851 89.6246 562.111 87.4079 559.297 86.8098C557.857 86.5038 556.401 86.8099 555.385 87.62L555.678 86.2457L553.191 85.7171L550.636 97.7366L553.123 98.2652L554.551 91.5465C555.019 89.3433 556.46 88.464 558.292 88.8535C560.103 89.2383 561.062 90.6277 560.593 92.8309L559.165 99.5496ZM580.7 104.127L583.317 104.683L581.113 88.3462L578.233 87.7341L569.574 101.762L572.17 102.314L573.919 99.4482L580.267 100.797L580.7 104.127ZM580 98.6204L575.049 97.5678L579.033 91.0505L580 98.6204ZM586.13 98.9884C585.328 102.762 587.251 105.725 590.698 106.457C593.643 107.083 595.91 105.855 597.087 103.643L594.404 103.073C593.682 104.219 592.627 104.678 591.143 104.363C589.136 103.937 588.121 102.17 588.682 99.5309C589.238 96.9132 590.884 95.7127 592.891 96.1393C594.375 96.4546 595.177 97.4003 595.345 98.6445L598.029 99.2148C597.89 96.5407 596.281 94.6711 593.336 94.0451C589.89 93.3125 586.927 95.2364 586.13 98.9884ZM599.21 101.769C598.407 105.542 600.331 108.505 603.778 109.238C606.723 109.863 608.99 108.635 610.167 106.423L607.484 105.853C606.762 106.999 605.706 107.459 604.223 107.143C602.216 106.717 601.201 104.951 601.762 102.311C602.318 99.6934 603.964 98.4929 605.971 98.9195C607.454 99.2348 608.257 100.18 608.425 101.425L611.109 101.995C610.97 99.3209 609.361 97.4513 606.416 96.8253C602.97 96.0927 600.007 98.0166 599.21 101.769ZM624.571 107.159C625.373 103.385 623.183 100.389 619.758 99.6612C616.333 98.9332 613.114 100.78 612.311 104.553C611.509 108.327 613.586 111.322 617.011 112.05C620.457 112.783 623.769 110.933 624.571 107.159ZM614.842 105.091C615.421 102.365 617.379 101.413 619.255 101.812C621.109 102.206 622.598 103.89 622.019 106.617C621.439 109.344 619.324 110.285 617.47 109.891C615.594 109.492 614.262 107.818 614.842 105.091ZM639.189 103.997L636.703 103.468L635.279 110.165C634.811 112.368 633.37 113.248 631.538 112.858C629.727 112.473 628.768 111.084 629.237 108.881L630.66 102.184L628.195 101.66L626.693 108.728C625.979 112.087 627.741 114.308 630.555 114.906C631.973 115.208 633.451 114.906 634.454 114.048L634.148 115.488L636.635 116.016L639.189 103.997ZM648.445 118.527L650.91 119.051L652.417 111.961C653.131 108.602 651.391 106.385 648.577 105.787C647.137 105.481 645.681 105.787 644.665 106.597L644.957 105.223L642.471 104.694L639.916 116.714L642.403 117.242L643.831 110.524C644.299 108.32 645.74 107.441 647.572 107.83C649.383 108.215 650.341 109.605 649.873 111.808L648.445 118.527ZM655.184 116.471C654.665 118.914 655.805 120.091 657.943 120.545L659.906 120.963L660.347 118.89L658.82 118.566C657.773 118.343 657.503 117.898 657.693 117.004L659.107 110.351L662.03 110.972L662.461 108.943L659.538 108.322L660.173 105.333L657.665 104.8L657.03 107.789L655.612 107.487L655.18 109.516L656.598 109.817L655.184 116.471Z" fill="white"/>
<path d="M400.281 383.235L391.542 381.378C391.06 381.275 390.576 381.599 390.471 382.094L387.145 397.739C387.04 398.234 387.35 398.726 387.833 398.829L396.543 400.68C397.025 400.783 397.509 400.459 397.614 399.964L400.94 384.319C401.074 383.83 400.763 383.338 400.281 383.235ZM393.596 398.501C393.571 398.617 393.433 398.71 393.32 398.686L391.646 398.33C391.532 398.306 391.443 398.165 391.468 398.049L391.833 396.33C391.858 396.213 391.997 396.121 392.11 396.145L393.784 396.501C393.897 396.525 393.986 396.665 393.961 396.782L393.596 398.501ZM396.727 395.908L389.634 394.401L391.993 383.301L399.086 384.808L396.727 395.908Z" fill="#B0B0B0"/>
<path opacity="0.35" d="M727.851 79.8615C728.073 78.8173 729.099 78.1508 730.144 78.3728L744.686 81.4639C745.73 81.6858 746.397 82.7122 746.175 83.7563L745.062 88.9917C744.84 90.0358 743.814 90.7023 742.77 90.4804L728.227 87.3892C727.183 87.1673 726.516 86.1409 726.738 85.0968L727.851 79.8615Z" stroke="#14171A" stroke-width="0.892054"/>
<path opacity="0.4" d="M747.298 84.907L746.556 88.3972C747.321 88.2509 747.924 87.6603 748.086 86.8984C748.248 86.1366 747.938 85.3518 747.298 84.907Z" fill="#35001C"/>
<path d="M729.036 80.7215C729.173 80.079 729.805 79.6688 730.447 79.8054L743.826 82.6492C744.469 82.7858 744.879 83.4174 744.742 84.06L743.877 88.1319C743.74 88.7744 743.109 89.1846 742.466 89.048L729.087 86.2042C728.444 86.0676 728.034 85.436 728.171 84.7935L729.036 80.7215Z" fill="#35001C"/>
<path fill-rule="evenodd" clip-rule="evenodd" d="M716.432 77.0768C718.366 77.4879 720.068 78.6261 721.186 80.2561C721.269 80.3814 721.438 80.416 721.564 80.3336L722.789 79.53C722.853 79.4882 722.898 79.4227 722.913 79.3479C722.929 79.2731 722.914 79.1953 722.872 79.1316C719.943 74.8251 714.141 73.5918 709.714 76.3348C709.649 76.3758 709.604 76.4407 709.587 76.5153C709.571 76.5899 709.585 76.6679 709.626 76.7321L710.419 77.9645C710.501 78.0912 710.669 78.1284 710.796 78.0478C712.481 77.0134 714.499 76.6658 716.432 77.0768ZM715.729 80.3887C716.791 80.6145 717.731 81.2271 718.367 82.1075C718.452 82.2314 718.62 82.2648 718.746 82.1829L719.97 81.3791C720.035 81.337 720.08 81.2708 720.095 81.1954C720.11 81.1199 720.094 81.0416 720.051 80.9777C718.128 78.2374 714.414 77.4481 711.542 79.169C711.477 79.2098 711.43 79.2751 711.414 79.3502C711.397 79.4254 711.411 79.5041 711.453 79.5687L712.244 80.8008C712.326 80.9268 712.493 80.9646 712.621 80.8861C713.559 80.3408 714.667 80.1635 715.729 80.3887ZM717.273 83.0461C717.259 83.1219 717.213 83.1883 717.148 83.2298L715.032 84.6181C714.97 84.6589 714.894 84.6732 714.821 84.6578C714.748 84.6423 714.685 84.5984 714.645 84.5359L713.276 82.4066C713.233 82.3422 713.219 82.2631 713.236 82.188C713.254 82.1128 713.302 82.0483 713.369 82.0096C714.682 81.3048 716.312 81.6513 717.225 82.8293C717.27 82.8918 717.288 82.9702 717.273 83.0461Z" fill="#35001C"/>
<path fill-rule="evenodd" clip-rule="evenodd" d="M704.87 72.8486L703.998 72.6631C703.516 72.5607 703.042 72.8683 702.94 73.3502L701.332 80.9124C701.23 81.3943 701.537 81.868 702.019 81.9704L702.892 82.1559C703.374 82.2583 703.847 81.9507 703.95 81.4688L705.557 73.9066C705.66 73.4247 705.352 72.951 704.87 72.8486ZM699.493 73.8336L700.365 74.0191C700.847 74.1215 701.155 74.5952 701.053 75.0771L699.878 80.6033C699.775 81.0852 699.302 81.3929 698.82 81.2904L697.947 81.105C697.465 81.0025 697.158 80.5288 697.26 80.0469L698.435 74.5207C698.537 74.0388 699.011 73.7312 699.493 73.8336ZM695.861 75.1895L694.988 75.004C694.506 74.9016 694.033 75.2092 693.93 75.6911L693.188 79.1813C693.086 79.6632 693.393 80.1369 693.875 80.2394L694.748 80.4248C695.23 80.5273 695.703 80.2196 695.806 79.7377L696.548 76.2475C696.65 75.7656 696.343 75.2919 695.861 75.1895ZM691.418 76.0691L690.545 75.8836C690.063 75.7812 689.59 76.0888 689.487 76.5707L689.116 78.3158C689.014 78.7977 689.322 79.2714 689.803 79.3738L690.676 79.5593C691.158 79.6617 691.632 79.3541 691.734 78.8722L692.105 77.1271C692.207 76.6452 691.9 76.1715 691.418 76.0691Z" fill="#35001C"/>
<path d="M465.212 26.0785C465.04 27.4647 465.698 28.8767 467.674 29.2968C470.174 29.8281 471.219 28.2582 471.904 25.0385C472.568 21.9103 472.103 20.0467 469.642 19.5236C467.64 19.098 466.208 20.1069 465.804 22.0047C465.376 24.0203 466.517 25.3436 468.193 25.6997C469.056 25.8833 469.951 25.7314 470.51 25.2211C469.993 27.6556 469.221 28.326 468.03 28.0728C467.035 27.8614 466.576 27.2575 466.586 26.3706L465.212 26.0785ZM468.721 24.4989C467.399 24.2179 467.031 23.2503 467.239 22.2687C467.473 21.1693 468.305 20.5389 469.417 20.7754C470.503 21.0063 471.05 21.8474 470.791 23.0647C470.563 24.1379 469.782 24.7242 468.721 24.4989ZM474.148 29.7835C474.262 29.2469 473.932 28.739 473.408 28.6278C472.872 28.5137 472.364 28.8435 472.25 29.3801C472.136 29.9168 472.465 30.4246 473.002 30.5387C473.526 30.65 474.033 30.3201 474.148 29.7835ZM475.316 24.2864C475.43 23.7498 475.1 23.2419 474.577 23.1306C474.04 23.0166 473.532 23.3464 473.418 23.883C473.304 24.4196 473.634 24.9275 474.171 25.0415C474.694 25.1528 475.202 24.823 475.316 24.2864ZM479.724 31.8718L481.19 32.1834L481.613 30.1939L482.83 30.4527L483.106 29.1569L481.889 28.8982L483.193 22.7597L481.387 22.3758L475.648 27.7496L475.409 28.8752L480.147 29.8823L479.724 31.8718ZM477.399 27.9439L481.47 23.9803L480.488 28.6005L477.399 27.9439ZM484.403 32.8662L485.908 33.1862L487.936 23.6447L485.214 23.0661L484.924 24.4273L486.142 24.686L484.403 32.8662Z" fill="#35001C"/>
</g>
</g>
</g>
<defs>
<filter id="filter0_d" x="0" y="41" width="535" height="926" filterUnits="userSpaceOnUse" color-interpolation-filters="sRGB">
<feFlood flood-opacity="0" result="BackgroundImageFix"/>
<feColorMatrix in="SourceAlpha" type="matrix" values="0 0 0 0 0 0 0 0 0 0 0 0 0 0 0 0 0 0 127 0"/>
<feOffset dx="100" dy="100"/>
<feGaussianBlur stdDeviation="50"/>
<feColorMatrix type="matrix" values="0 0 0 0 0 0 0 0 0 0 0 0 0 0 0 0 0 0 0.1 0"/>
<feBlend mode="normal" in2="BackgroundImageFix" result="effect1_dropShadow"/>
<feBlend mode="normal" in="SourceGraphic" in2="effect1_dropShadow" result="shape"/>
</filter>
<filter id="filter1_d" x="287" y="0" width="678.623" height="979.786" filterUnits="userSpaceOnUse" color-interpolation-filters="sRGB">
<feFlood flood-opacity="0" result="BackgroundImageFix"/>
<feColorMatrix in="SourceAlpha" type="matrix" values="0 0 0 0 0 0 0 0 0 0 0 0 0 0 0 0 0 0 127 0"/>
<feOffset dx="100" dy="100"/>
<feGaussianBlur stdDeviation="50"/>
<feColorMatrix type="matrix" values="0 0 0 0 0 0 0 0 0 0 0 0 0 0 0 0 0 0 0.1 0"/>
<feBlend mode="normal" in2="BackgroundImageFix" result="effect1_dropShadow"/>
<feBlend mode="normal" in="SourceGraphic" in2="effect1_dropShadow" result="shape"/>
</filter>
<linearGradient id="paint0_linear" x1="167.094" y1="596" x2="158.606" y2="2.05246e-05" gradientUnits="userSpaceOnUse">
<stop stop-color="#645C8F"/>
<stop offset="1" stop-color="#958EBA"/>
</linearGradient>
<linearGradient id="paint1_linear" x1="166.814" y1="595" x2="158.34" y2="2.04949e-05" gradientUnits="userSpaceOnUse">
<stop stop-color="#645C8F"/>
<stop offset="1" stop-color="#958EBA"/>
</linearGradient>
<clipPath id="clip0">
<rect y="41" width="335" height="726" rx="15" fill="white"/>
</clipPath>
<clipPath id="clip1">
<rect width="335.082" height="596" fill="white" transform="translate(0 41)"/>
</clipPath>
<clipPath id="clip2">
<rect x="437.944" width="335" height="726" rx="15" transform="rotate(12 437.944 0)" fill="white"/>
</clipPath>
<clipPath id="clip3">
<rect width="334.52" height="595" fill="white" transform="translate(437.944) rotate(12)"/>
</clipPath>
</defs>
</svg>
