<svg width="12" height="14" viewBox="0 0 12 14" fill="none" xmlns="http://www.w3.org/2000/svg">
<path d="M6.7101 12.7099L11.7101 7.70994C11.8011 7.61484 11.8725 7.50269 11.9201 7.37994C12.0201 7.13648 12.0201 6.8634 11.9201 6.61994C11.8725 6.49719 11.8011 6.38505 11.7101 6.28994L6.7101 1.28994C6.61687 1.1967 6.50618 1.12274 6.38435 1.07228C6.26253 1.02182 6.13196 0.995849 6.0001 0.995849C5.7338 0.995849 5.47841 1.10164 5.2901 1.28994C5.1018 1.47824 4.99601 1.73364 4.99601 1.99994C4.99601 2.26624 5.1018 2.52164 5.2901 2.70994L8.5901 5.99994L1.0001 5.99994C0.734887 5.99994 0.480532 6.1053 0.292996 6.29283C0.10546 6.48037 0.0001037 6.73472 0.000103688 6.99994C0.000103676 7.26516 0.10546 7.51951 0.292996 7.70705C0.480532 7.89458 0.734887 7.99994 1.0001 7.99994L8.5901 7.99994L5.2901 11.2899C5.19637 11.3829 5.12198 11.4935 5.07121 11.6154C5.02044 11.7372 4.9943 11.8679 4.9943 11.9999C4.9943 12.132 5.02044 12.2627 5.07121 12.3845C5.12198 12.5064 5.19637 12.617 5.2901 12.7099C5.38307 12.8037 5.49367 12.8781 5.61553 12.9288C5.73739 12.9796 5.86809 13.0057 6.0001 13.0057C6.13211 13.0057 6.26282 12.9796 6.38468 12.9288C6.50654 12.8781 6.61714 12.8037 6.7101 12.7099Z" fill="black"/>
</svg>
