<svg width="30" height="23" viewBox="0 0 30 23" fill="none" xmlns="http://www.w3.org/2000/svg">
    <path d="M15 10.5948L30 2.73345V2.00011C30 1.61113 29.842 1.23808 29.5607 0.963024C29.2794 0.687971 28.8978 0.533447 28.5 0.533447H1.5C1.10218 0.533447 0.720644 0.687971 0.43934 0.963024C0.158035 1.23808 0 1.61113 0 2.00011V2.73345L15 10.5948Z" fill="#B57F66" />
    <path d="M15.705 13.5574C15.488 13.6704 15.2459 13.7295 15 13.7295C14.7541 13.7295 14.512 13.6704 14.295 13.5574L0 6.03345V21.0668C0 21.4558 0.158035 21.8288 0.43934 22.1039C0.720644 22.3789 1.10218 22.5334 1.5 22.5334H28.5C28.8978 22.5334 29.2794 22.3789 29.5607 22.1039C29.842 21.8288 30 21.4558 30 21.0668V6.03345L15.705 13.5574Z" fill="#B57F66" />
</svg>