<svg width="59" height="59" viewBox="0 0 59 59" fill="none" xmlns="http://www.w3.org/2000/svg">
    <rect x="5" y="5" width="48" height="48" rx="5" fill="#438AFB" />
    <path d="M41.8315 20.0197L29.9643 15.0926C29.667 14.9692 29.3329 14.9691 29.0357 15.0926L17.1685 20.0197C16.7165 20.2074 16.4219 20.6487 16.4219 21.1381V27.1277C16.4219 35.3749 21.4066 42.7936 29.0424 45.9102C29.3357 46.0299 29.6643 46.0299 29.9576 45.9102C37.5932 42.7936 42.5781 35.375 42.5781 27.1277V21.1381C42.5781 20.6487 42.2836 20.2074 41.8315 20.0197ZM40.1562 27.1277C40.1562 34.1387 36.0391 40.5928 29.5 43.4737C23.1357 40.6697 18.8438 34.3287 18.8438 27.1277V21.9465L29.5 17.5221L40.1562 21.9465V27.1277ZM28.1616 31.2094L33.3664 26.0046C33.8393 25.5317 34.606 25.5316 35.0789 26.0046C35.5518 26.4775 35.5518 27.2442 35.0788 27.7171L29.0178 33.7781C28.5448 34.2511 27.7781 34.2509 27.3053 33.7781L23.9211 30.3939C23.4482 29.921 23.4482 29.1543 23.9211 28.6814C24.394 28.2085 25.1607 28.2085 25.6336 28.6814L28.1616 31.2094Z" fill="white" />
    <rect width="59" height="59" rx="6.14583" fill="#438AFB" />
    <g clip-path="url(#clip0)">
        <path d="M23.9729 22.9512L21.0105 25.9135L19.8711 24.7742C19.4936 24.3966 18.8814 24.3966 18.5039 24.7742C18.1263 25.1517 18.1263 25.7638 18.5039 26.1414L20.3269 27.9644C20.5157 28.1532 20.763 28.2476 21.0105 28.2476C21.2578 28.2476 21.5053 28.1532 21.6941 27.9644L25.3401 24.3184C25.7177 23.9409 25.7177 23.3287 25.3401 22.9512C24.9626 22.5736 24.3504 22.5735 23.9729 22.9512Z" fill="white" />
        <path d="M23.9729 29.8293L21.0105 32.7916L19.8711 31.6523C19.4936 31.2747 18.8814 31.2747 18.5039 31.6523C18.1263 32.0299 18.1263 32.642 18.5039 33.0196L20.3269 34.8425C20.5157 35.0314 20.763 35.1258 21.0105 35.1258C21.2578 35.1258 21.5053 35.0313 21.6941 34.8425L25.3401 31.1966C25.7177 30.8191 25.7177 30.2069 25.3401 29.8293C24.9625 29.4518 24.3504 29.4518 23.9729 29.8293Z" fill="white" />
        <path d="M23.9729 36.7075L21.0105 39.6698L19.8711 38.5305C19.4936 38.1529 18.8814 38.1529 18.5039 38.5305C18.1263 38.908 18.1263 39.5202 18.5039 39.8977L20.3269 41.7207C20.5157 41.9096 20.763 42.0039 21.0105 42.0039C21.2578 42.0039 21.5053 41.9095 21.6941 41.7207L25.3401 38.0747C25.7177 37.6972 25.7177 37.0851 25.3401 36.7075C24.9625 36.3299 24.3504 36.3299 23.9729 36.7075Z" fill="white" />
        <path d="M39.2854 30.1516L36.323 33.1139L35.1836 31.9746C34.8061 31.597 34.1939 31.597 33.8164 31.9746C33.4388 32.3521 33.4388 32.9643 33.8164 33.3418L35.6394 35.1648C35.8282 35.3536 36.0756 35.448 36.323 35.448C36.5703 35.448 36.8178 35.3537 37.0066 35.1648L40.6525 31.5188C41.0301 31.1413 41.0301 30.5291 40.6525 30.1516C40.2751 29.774 39.6629 29.774 39.2854 30.1516Z" fill="white" />
        <path d="M43.6797 25.8906C42.458 25.8906 41.3596 25.2118 40.8133 24.1192L40.6773 23.847C40.5135 23.5194 40.1787 23.3125 39.8125 23.3125H36.9121V19.7676C36.9121 18.1683 35.611 16.8672 34.0117 16.8672H32.4004V16.5449C32.4004 16.011 31.9675 15.5781 31.4336 15.5781C30.3601 15.5781 29.4285 14.8508 29.1681 13.8091L29.1488 13.7322C29.0412 13.3018 28.6545 13 28.2109 13H23.0547C22.6111 13 22.2245 13.3018 22.1168 13.7321L22.0975 13.8093C21.8372 14.8508 20.9056 15.5781 19.832 15.5781C19.2981 15.5781 18.8652 16.011 18.8652 16.5449V16.8672H17.2539C15.6546 16.8672 14.3535 18.1683 14.3535 19.7676V43.0996C14.3535 44.6989 15.6546 46 17.2539 46H34.0117C35.611 46 36.9121 44.6989 36.9121 43.0996V41.9493C36.927 41.9538 36.9417 41.9587 36.9566 41.9631C37.0472 41.9903 37.1408 42.0039 37.2344 42.0039C37.328 42.0039 37.4215 41.9903 37.5122 41.9631C39.5898 41.3398 41.3725 40.0905 42.6673 38.3503C43.9621 36.61 44.6465 34.5435 44.6465 32.3744V26.8574C44.6465 26.3235 44.2136 25.8906 43.6797 25.8906ZM20.7988 17.4017C22.1142 17.0975 23.215 16.184 23.7524 14.9336H27.5132C28.0506 16.1839 29.1516 17.0975 30.4668 17.4017V18.8008H20.7988V17.4017ZM34.9785 43.0996C34.9785 43.6327 34.5448 44.0664 34.0117 44.0664H17.2539C16.7208 44.0664 16.2871 43.6327 16.2871 43.0996V19.7676C16.2871 19.2345 16.7208 18.8008 17.2539 18.8008H18.8652V19.7676C18.8652 20.3015 19.2981 20.7344 19.832 20.7344H31.4336C31.9675 20.7344 32.4004 20.3015 32.4004 19.7676V18.8008H34.0117C34.5448 18.8008 34.9785 19.2345 34.9785 19.7676V23.3125H34.6562C34.29 23.3125 33.9553 23.5194 33.7915 23.8469L33.6554 24.1191C33.1091 25.2118 32.0108 25.8906 30.7891 25.8906C30.2551 25.8906 29.8223 26.3235 29.8223 26.8574V32.3744C29.8223 34.5435 30.5067 36.61 31.8015 38.3503C32.6633 39.5085 33.7414 40.449 34.9785 41.1324V43.0996ZM42.7129 32.3744C42.7129 35.8714 40.5234 38.909 37.2344 40.0224C33.9454 38.909 31.7559 35.8714 31.7559 32.3744V27.7341C33.219 27.4579 34.4911 26.5611 35.2444 25.246H39.2244C39.9777 26.561 41.2497 27.4579 42.7129 27.7341V32.3744Z" fill="white" />
    </g>
    <defs>
        <clipPath id="clip0">
            <rect width="33" height="33" fill="white" transform="translate(13 13)" />
        </clipPath>
    </defs>
</svg>