<svg width="59" height="59" viewBox="0 0 59 59" fill="none" xmlns="http://www.w3.org/2000/svg">
    <rect width="59" height="59" rx="5" fill="#438AFB" />
    <path d="M43.4227 17.6674L30.0243 12.1045C29.6886 11.9652 29.3113 11.9651 28.9758 12.1045L15.5773 17.6674C15.067 17.8793 14.7344 18.3775 14.7344 18.9301V25.6925C14.7344 35.0039 20.3623 43.3798 28.9833 46.8986C29.3145 47.0338 29.6855 47.0338 30.0167 46.8986C38.6375 43.3799 44.2656 35.004 44.2656 25.6925V18.9301C44.2656 18.3775 43.9331 17.8793 43.4227 17.6674ZM41.5313 25.6925C41.5313 33.6082 36.8828 40.8951 29.5 44.1478C22.3145 40.982 17.4688 33.8227 17.4688 25.6925V19.8428L29.5 14.8475L41.5313 19.8428V25.6925ZM27.9888 30.3009L33.8653 24.4245C34.3992 23.8906 35.2648 23.8906 35.7988 24.4245C36.3327 24.9585 36.3327 25.8241 35.7987 26.358L28.9556 33.2011C28.4216 33.7351 27.5559 33.7349 27.0221 33.2011L23.2012 29.3802C22.6673 28.8463 22.6673 27.9806 23.2012 27.4467C23.7352 26.9129 24.6008 26.9128 25.1347 27.4467L27.9888 30.3009Z" fill="white" />
</svg>