<svg width="59" height="59" viewBox="0 0 59 59" fill="none" xmlns="http://www.w3.org/2000/svg">
    <rect width="59" height="59" rx="6.14583" fill="#438AFB" />
    <path d="M26.583 47C23.5688 47 21.1143 44.5471 21.1143 41.5312C21.1143 40.9275 21.6043 40.4375 22.208 40.4375C22.8118 40.4375 23.3018 40.9275 23.3018 41.5312C23.3018 43.3412 24.7747 44.8125 26.583 44.8125C28.3913 44.8125 29.8643 43.3412 29.8643 41.5312C29.8643 40.9275 30.3543 40.4375 30.958 40.4375C31.5618 40.4375 32.0518 40.9275 32.0518 41.5312C32.0518 44.5471 29.5975 47 26.583 47Z" fill="white" />
    <path d="M38.6145 42.625H14.552C13.1448 42.625 12 41.4803 12 40.073C12 39.3261 12.3252 38.6191 12.8924 38.1333C12.929 38.1013 12.9682 38.0722 13.0091 38.0457C15.1499 36.1776 16.375 33.49 16.375 30.652V26.5833C16.375 21.8336 19.5935 17.7561 24.2019 16.6666C24.7909 16.531 25.3803 16.8912 25.5189 17.4805C25.6572 18.0683 25.2927 18.6573 24.7066 18.7959C21.0883 19.6504 18.5625 22.8529 18.5625 26.5833V30.652C18.5625 34.1754 17.018 37.5093 14.329 39.7972C14.3071 39.8148 14.2882 39.8308 14.2647 39.8469C14.2254 39.8965 14.1875 39.9724 14.1875 40.073C14.1875 40.2712 14.3539 40.4375 14.552 40.4375H38.6145C38.8129 40.4375 38.9793 40.2712 38.9793 40.073C38.9793 39.9708 38.9413 39.8965 38.9005 39.8469C38.8786 39.8308 38.858 39.8148 38.8377 39.7972C37.5312 38.6831 36.4999 37.3386 35.7738 35.8C35.5143 35.2545 35.7474 34.6027 36.2943 34.3431C36.8457 34.0836 37.4916 34.3199 37.7499 34.8652C38.3272 36.0844 39.1365 37.1549 40.1603 38.0503C40.1982 38.0765 40.2378 38.1042 40.2711 38.1333C40.8415 38.6191 41.1668 39.3261 41.1668 40.073C41.1668 41.4803 40.022 42.625 38.6145 42.625Z" fill="white" />
    <path d="M37.521 30.9582C32.2944 30.9582 28.042 26.7058 28.042 21.4793C28.042 16.2524 32.2944 12 37.521 12C42.7478 12 47.0002 16.2524 47.0002 21.4793C47.0002 26.7058 42.7478 30.9582 37.521 30.9582ZM37.521 14.1875C33.5003 14.1875 30.2295 17.4586 30.2295 21.4793C30.2295 25.4999 33.5003 28.7707 37.521 28.7707C41.5416 28.7707 44.8127 25.4999 44.8127 21.4793C44.8127 17.4586 41.5416 14.1875 37.521 14.1875Z" fill="white" />
    <path d="M37.8855 25.8541C37.2818 25.8541 36.7918 25.3641 36.7918 24.7604V20.0206H36.0625C35.4587 20.0206 34.9688 19.5306 34.9688 18.9269C34.9688 18.3231 35.4587 17.8331 36.0625 17.8331H37.8855C38.4893 17.8331 38.9793 18.3231 38.9793 18.9269V24.7604C38.9793 25.3641 38.4893 25.8541 37.8855 25.8541Z" fill="white" />
</svg>