<svg width="59" height="59" viewBox="0 0 59 59" fill="none" xmlns="http://www.w3.org/2000/svg">
    <rect width="59" height="59" rx="6.14583" fill="#438AFB" />
    <path d="M24.6465 12H17.5908C17.3188 12 17.058 12.108 16.8658 12.3004L12.3004 16.8658C12.108 17.058 12 17.3189 12 17.5908V29.5C12 30.0663 12.4591 30.5254 13.0254 30.5254H24.6465C25.2128 30.5254 25.6719 30.0663 25.6719 29.5V13.0254C25.6719 12.4591 25.2128 12 24.6465 12ZM23.6211 28.4746H14.0508V18.0156L18.0156 14.0508H23.6211V28.4746Z" fill="white" />
    <path d="M45.9746 28.4746H38.919C38.647 28.4746 38.3862 28.5826 38.1939 28.775L33.6285 33.3404C33.4362 33.5327 33.3281 33.7935 33.3281 34.0654V45.9746C33.3281 46.5409 33.7872 47 34.3535 47H45.9746C46.5409 47 47 46.5409 47 45.9746V29.5C47 28.9337 46.5409 28.4746 45.9746 28.4746ZM44.9492 44.9492H35.3789V34.4902L39.3437 30.5254H44.9492V44.9492Z" fill="white" />
    <path d="M26.082 37.3955C24.7453 37.3955 23.6055 38.2528 23.1822 39.4463H19.8613V34.9688C19.8613 34.4025 19.4022 33.9434 18.8359 33.9434C18.2696 33.9434 17.8105 34.4025 17.8105 34.9688V40.4717C17.8105 41.038 18.2696 41.4971 18.8359 41.4971H23.1822C23.6055 42.6906 24.7453 43.5479 26.082 43.5479C27.7782 43.5479 29.1582 42.1679 29.1582 40.4717C29.1582 38.7755 27.7782 37.3955 26.082 37.3955ZM26.082 41.4971C25.5166 41.4971 25.0566 41.0371 25.0566 40.4717C25.0566 39.9063 25.5166 39.4463 26.082 39.4463C26.6474 39.4463 27.1074 39.9063 27.1074 40.4717C27.1074 41.0371 26.6474 41.4971 26.082 41.4971Z" fill="white" />
    <path d="M40.1641 17.5029H35.8178C35.3945 16.3094 34.2547 15.4521 32.918 15.4521C31.2218 15.4521 29.8418 16.8321 29.8418 18.5283C29.8418 20.2245 31.2218 21.6045 32.918 21.6045C34.2547 21.6045 35.3945 20.7472 35.8178 19.5537H39.1387V24.0312C39.1387 24.5975 39.5978 25.0566 40.1641 25.0566C40.7304 25.0566 41.1895 24.5975 41.1895 24.0312V18.5283C41.1895 17.962 40.7304 17.5029 40.1641 17.5029ZM32.918 19.5537C32.3526 19.5537 31.8926 19.0937 31.8926 18.5283C31.8926 17.9629 32.3526 17.5029 32.918 17.5029C33.4834 17.5029 33.9434 17.9629 33.9434 18.5283C33.9434 19.0937 33.4834 19.5537 32.918 19.5537Z" fill="white" />
</svg>