<svg width="21" height="20" viewBox="0 0 21 20" fill="none" xmlns="http://www.w3.org/2000/svg">
<path d="M19.5 9.50003C19.5034 10.8199 19.1951 12.1219 18.6 13.3C17.8944 14.7118 16.8098 15.8992 15.4674 16.7293C14.1251 17.5594 12.5782 17.9994 11 18C9.68013 18.0035 8.37812 17.6951 7.2 17.1L1.5 19L3.4 13.3C2.80493 12.1219 2.49656 10.8199 2.5 9.50003C2.50061 7.92179 2.94061 6.37488 3.77072 5.03258C4.60083 3.69028 5.78825 2.6056 7.2 1.90003C8.37812 1.30496 9.68013 0.996587 11 1.00003H11.5C13.5843 1.11502 15.553 1.99479 17.0291 3.47089C18.5052 4.94699 19.385 6.91568 19.5 9.00003V9.50003Z" stroke="white" stroke-width="2" stroke-linecap="round" stroke-linejoin="round"/>
</svg>
