<svg width="19" height="19" viewBox="0 0 19 19" fill="none" xmlns="http://www.w3.org/2000/svg">
<path d="M7.125 15.4375H7.52083V15.0417V11.875V11.4792H7.125H3.95833H3.5625V11.875V15.0417V15.4375H3.95833H7.125ZM15.0417 7.52083H15.4375V7.125V3.95833V3.5625H15.0417H11.875H11.4792V3.95833V7.125V7.52083H11.875H15.0417ZM13.8542 12.6667V13.0625H14.25H15.8333C15.9383 13.0625 16.039 13.1042 16.1132 13.1784C16.1875 13.2527 16.2292 13.3533 16.2292 13.4583C16.2292 13.5633 16.1875 13.664 16.1132 13.7382C16.039 13.8125 15.9383 13.8542 15.8333 13.8542H14.25H13.8542V14.25V15.8333C13.8542 15.9383 13.8125 16.039 13.7382 16.1132C13.664 16.1875 13.5633 16.2292 13.4583 16.2292C13.3533 16.2292 13.2527 16.1875 13.1784 16.1132C13.1042 16.039 13.0625 15.9383 13.0625 15.8333V14.25V13.8542H12.6667H11.0833C10.9784 13.8542 10.8777 13.8125 10.8034 13.7382C10.7292 13.664 10.6875 13.5633 10.6875 13.4583C10.6875 13.3534 10.7292 13.2527 10.8034 13.1784C10.8777 13.1042 10.9784 13.0625 11.0833 13.0625H12.6667H13.0625V12.6667V11.0833C13.0625 10.9784 13.1042 10.8777 13.1784 10.8034C13.2527 10.7292 13.3534 10.6875 13.4583 10.6875C13.5633 10.6875 13.664 10.7292 13.7382 10.8034C13.8125 10.8777 13.8542 10.9784 13.8542 11.0833V12.6667ZM7.125 7.52083H7.52083V7.125L7.52083 3.95833V3.5625H7.125L3.95833 3.5625H3.5625V3.95833L3.5625 7.125V7.52083H3.95833L7.125 7.52083ZM3.16667 10.6875L7.91667 10.6875C8.02165 10.6875 8.12233 10.7292 8.19656 10.8034C8.2708 10.8777 8.3125 10.9784 8.3125 11.0833V15.8333C8.3125 15.9383 8.2708 16.039 8.19656 16.1132C8.12233 16.1875 8.02165 16.2292 7.91667 16.2292H3.16667C3.06168 16.2292 2.961 16.1875 2.88677 16.1132C2.81254 16.039 2.77083 15.9383 2.77083 15.8333L2.77083 11.0833C2.77083 10.9784 2.81254 10.8777 2.88677 10.8034C2.961 10.7292 3.06168 10.6875 3.16667 10.6875ZM11.0833 2.77083L15.8333 2.77083C15.9383 2.77083 16.039 2.81254 16.1132 2.88677C16.1875 2.961 16.2292 3.06168 16.2292 3.16667V7.91667C16.2292 8.02165 16.1875 8.12233 16.1132 8.19656C16.039 8.2708 15.9383 8.3125 15.8333 8.3125H11.0833C10.9784 8.3125 10.8777 8.2708 10.8034 8.19656C10.7292 8.12233 10.6875 8.02165 10.6875 7.91667L10.6875 3.16667C10.6875 3.06168 10.7292 2.961 10.8034 2.88677C10.8777 2.81254 10.9784 2.77083 11.0833 2.77083ZM3.16667 2.77083L7.91667 2.77083C8.02165 2.77083 8.12233 2.81254 8.19656 2.88677C8.2708 2.961 8.3125 3.06169 8.3125 3.16667V7.91667C8.3125 8.02165 8.2708 8.12233 8.19656 8.19656C8.12233 8.2708 8.02165 8.3125 7.91667 8.3125H3.16667C3.06169 8.3125 2.961 8.2708 2.88677 8.19656C2.81254 8.12233 2.77083 8.02165 2.77083 7.91667L2.77083 3.16667C2.77083 3.06169 2.81254 2.961 2.88677 2.88677C2.961 2.81254 3.06169 2.77083 3.16667 2.77083Z" fill="white" stroke="white" stroke-width="0.791667"/>
</svg>
